<?xml version="1.0" encoding="UTF-8"?>
<svg version="1.1" xmlns="http://www.w3.org/2000/svg" width="512" height="512">
<path d="M0 0 C9.00264224 6.37747228 19.80935528 8.44017094 30.43481445 10.63720703 C31.10980988 10.77944702 31.7848053 10.92168701 32.48025513 11.0682373 C49.26750384 14.5991462 66.182142 17.4732189 83.09301758 20.34106445 C84.16540176 20.52515366 85.23778595 20.70924286 86.34266663 20.89891052 C88.3505824 21.2433831 90.35935065 21.58294145 92.36912537 21.91639709 C107.76539271 24.56888644 120.7052604 29.63198599 130.0871582 42.76220703 C140.56300075 59.39560588 144.23549975 77.71891176 140.7824707 97.11376953 C138.62553013 103.68642106 134.74611188 110.0557957 128.57525635 113.48225403 C122.87676102 116.2161416 118.3018901 117.00099431 112.0246582 116.84033203 C111.17174698 116.83467224 110.31883575 116.82901245 109.44007874 116.82318115 C106.7502214 116.80101993 104.06176029 116.75086562 101.37231445 116.69970703 C99.53444324 116.67961569 97.69655088 116.66136957 95.85864258 116.64501953 C91.38350579 116.60122217 86.90939575 116.53234011 82.43481445 116.44970703 C82.22441528 118.3319397 82.22441528 118.3319397 82.00976562 120.25219727 C81.05033383 128.83528184 75.91771147 137.75261571 69.43481445 143.44970703 C58.86751065 151.64547071 46.84755702 155.9260089 33.43481445 154.44970703 C21.08609666 152.27150715 10.30205253 146.1448646 2.6418457 136.09814453 C-1.39883918 129.81263471 -2.44199724 125.23473083 -4.56518555 117.44970703 C-77.16518555 117.11970703 -149.76518555 116.78970703 -224.56518555 116.44970703 C-225.55518555 120.40970703 -226.54518555 124.36970703 -227.56518555 128.44970703 C-232.77964624 139.85127394 -241.99057868 147.91172625 -253.56518555 152.44970703 C-265.0044867 156.3099659 -276.54646616 155.03496158 -287.56518555 150.44970703 C-298.60865109 144.4956968 -306.30105184 135.4192142 -310.90112305 123.84423828 C-311.61459254 121.27155122 -311.6120932 119.10605969 -311.56518555 116.44970703 C-312.17239944 116.45636887 -312.77961334 116.4630307 -313.40522766 116.46989441 C-319.71524774 116.5361759 -326.02516922 116.58147767 -332.33544922 116.61450195 C-334.69160986 116.62960451 -337.04774232 116.65008794 -339.40380859 116.67602539 C-342.78709867 116.7123436 -346.17001763 116.7294187 -349.5534668 116.74267578 C-351.13796379 116.76590157 -351.13796379 116.76590157 -352.75447083 116.78959656 C-354.2256562 116.78993645 -354.2256562 116.78993645 -355.7265625 116.7902832 C-356.5903804 116.79694504 -357.4541983 116.80360687 -358.3441925 116.81047058 C-361.08667422 116.36499983 -361.90545951 115.64338216 -363.56518555 113.44970703 C-364.53392562 110.94305616 -365.36566016 108.51703546 -366.12768555 105.94970703 C-366.33586914 105.29228516 -366.54405273 104.63486328 -366.75854492 103.95751953 C-370.05729232 93.16161895 -370.9540315 82.71685502 -370.94018555 71.44970703 C-370.9403064 70.77050201 -370.94042725 70.091297 -370.94055176 69.39151001 C-370.91177737 58.0040453 -369.80139878 47.3987072 -366.56518555 36.44970703 C-366.14946289 34.83515625 -366.14946289 34.83515625 -365.7253418 33.18798828 C-364.91166062 30.55946059 -364.14296583 28.69129217 -362.56518555 26.44970703 C-360.71777344 25.52148438 -360.71777344 25.52148438 -358.5378418 24.91064453 C-357.73209717 24.67055664 -356.92635254 24.43046875 -356.09619141 24.18310547 C-355.26095947 23.94108398 -354.42572754 23.6990625 -353.56518555 23.44970703 C-329.10791916 15.44817763 -306.57670058 3.88239646 -284.34155273 -8.95068359 C-201.14924422 -56.88209455 -95.2759329 -54.78938087 0 0 Z M-277.25366211 1.19580078 C-283.48662673 4.87715359 -289.83258963 8.29404284 -296.25268555 11.63720703 C-297.22028809 12.14912598 -298.18789063 12.66104492 -299.18481445 13.18847656 C-303.5524354 15.47719594 -307.87667452 17.63624431 -312.4753418 19.42236328 C-319.53777002 21.94205279 -319.53777002 21.94205279 -324.4519043 27.21728516 C-325.50858185 30.65990023 -325.9155864 34.08636786 -326.22143555 37.66455078 C-326.88483555 44.96948948 -330.24110557 49.91561956 -335.52612305 54.85205078 C-342.32559883 60.17960939 -350.26816898 62.50953015 -358.56518555 64.44970703 C-359.12245207 78.4123293 -358.0089303 91.11847276 -353.56518555 104.44970703 C-339.70518555 104.44970703 -325.84518555 104.44970703 -311.56518555 104.44970703 C-310.24518555 100.15970703 -308.92518555 95.86970703 -307.56518555 91.44970703 C-301.24825255 79.10297435 -292.81927959 72.68863995 -279.81518555 68.13720703 C-267.36816291 65.55764298 -254.59810516 67.47024532 -243.75268555 74.13720703 C-232.82729015 82.17589245 -228.74968495 91.89620881 -224.56518555 104.44970703 C-151.96518555 104.44970703 -79.36518555 104.44970703 -4.56518555 104.44970703 C-2.58518555 99.16970703 -0.60518555 93.88970703 1.43481445 88.44970703 C8.39252354 77.81622711 17.38566404 70.89631391 29.82543945 67.86767578 C42.63592633 65.8156966 54.63425968 67.82817754 65.37231445 75.19970703 C74.90543648 82.72658422 80.17929884 92.50689622 82.43481445 104.44970703 C87.45187166 104.52412709 92.46860418 104.57843611 97.48608398 104.61450195 C99.19121908 104.62954441 100.89631578 104.64998356 102.60131836 104.67602539 C105.05893457 104.71260987 107.51603714 104.72947876 109.97387695 104.74267578 C111.10860947 104.76590157 111.10860947 104.76590157 112.26626587 104.78959656 C117.05957033 104.79110446 120.25371485 104.04121532 124.43481445 101.44970703 C129.29690134 95.70844827 129.61614585 89.25496599 129.62231445 82.07470703 C129.63456055 81.33220703 129.64680664 80.58970703 129.65942383 79.82470703 C129.67140733 75.3029322 129.14534295 71.70912581 127.43481445 67.44970703 C125.55149414 67.51931641 125.55149414 67.51931641 123.63012695 67.59033203 C108.98588841 67.9735895 99.71406654 65.84814711 88.6652832 55.84814453 C82.49107036 49.52062166 79.14334691 41.35521281 75.43481445 33.44970703 C75.10481445 32.78970703 74.77481445 32.12970703 74.43481445 31.44970703 C72.57036211 30.84563661 72.57036211 30.84563661 70.2800293 30.49169922 C69.39334564 30.33102966 68.50666199 30.17036011 67.59310913 30.00482178 C66.62048126 29.83710266 65.64785339 29.66938354 64.64575195 29.49658203 C63.63630524 29.31387756 62.62685852 29.1311731 61.58682251 28.94293213 C57.26777506 28.16146483 52.94527757 27.39993961 48.62280273 26.63769531 C36.90748947 24.56025475 25.28635877 22.32557244 13.7590332 19.35986328 C12.34326492 19.00000336 12.34326492 19.00000336 10.89889526 18.63287354 C3.51837347 16.66906447 -2.29415921 13.8666908 -8.56518555 9.44970703 C-85.05976021 -43.10226867 -197.8912602 -45.83873374 -277.25366211 1.19580078 Z M-353.56518555 36.44970703 C-356.5530752 41.21341789 -356.56518555 45.95488905 -356.56518555 51.44970703 C-350.44625062 51.1359155 -346.19152499 48.2141049 -341.56518555 44.44970703 C-337.98582356 40.2439567 -337.0032921 36.92603897 -336.56518555 31.44970703 C-342.3911949 31.44970703 -348.48134978 33.77038818 -353.56518555 36.44970703 Z M89.43481445 34.44970703 C91.50694606 43.42894399 97.79752803 49.54487024 105.3215332 54.35595703 C109.14689758 56.3358129 112.40973838 56.56845803 116.68481445 56.51220703 C117.5768457 56.50318359 118.46887695 56.49416016 119.38793945 56.48486328 C120.0634082 56.47326172 120.73887695 56.46166016 121.43481445 56.44970703 C121.76481445 55.78970703 122.09481445 55.12970703 122.43481445 54.44970703 C115.75003424 44.70106922 109.06238959 38.51225215 97.43481445 35.44970703 C94.74207594 34.94932413 92.17126292 34.65623144 89.43481445 34.44970703 Z M-293.31518555 90.26220703 C-299.06207281 98.40363066 -301.70443628 106.98481614 -300.00268555 116.94970703 C-297.50672369 126.35116336 -291.81344698 133.76240284 -283.5065918 138.66455078 C-275.44757335 142.70124273 -267.70705047 143.30449734 -259.00268555 141.07470703 C-250.12026654 137.99068046 -243.8277083 132.47920249 -239.50268555 124.13720703 C-235.85088073 116.06684834 -235.36833548 108.30322284 -238.12768555 99.82470703 C-240.30129922 94.37525715 -243.36832135 90.4929103 -247.56518555 86.44970703 C-248.30768555 85.70720703 -249.05018555 84.96470703 -249.81518555 84.19970703 C-265.25886911 74.3719084 -280.91384807 77.57902097 -293.31518555 90.26220703 Z M15.43481445 89.44970703 C14.69231445 90.19220703 13.94981445 90.93470703 13.18481445 91.69970703 C7.91968801 99.97347716 5.94522463 108.58378309 8.0246582 118.16845703 C10.69189911 126.91995716 16.32352363 134.5806788 24.49731445 138.94970703 C25.79439134 139.48845353 27.10750629 139.99045841 28.43481445 140.44970703 C29.0587207 140.68302734 29.68262695 140.91634766 30.32543945 141.15673828 C38.4088138 143.70332979 46.10173674 142.36594393 53.68481445 138.88720703 C62.14851717 134.28260192 67.65648293 127.71581811 70.43481445 118.44970703 C72.26951819 109.93415109 71.51743551 101.83265256 67.1418457 94.19189453 C61.63243164 86.42258677 55.21628724 81.41276494 46.05981445 78.76220703 C33.70129377 77.29095457 24.16045381 80.39245193 15.43481445 89.44970703 Z " fill="#000000" transform="translate(370.565185546875,200.55029296875)"/>
<path d="M0 0 C2.58984375 2.4375 2.58984375 2.4375 3.08984375 6.125 C2.58984375 9.4375 2.58984375 9.4375 0.58984375 11.4375 C-1.48368025 11.68819833 -1.48368025 11.68819833 -4.10161591 11.68918228 C-5.59489056 11.69700552 -5.59489056 11.69700552 -7.11833239 11.70498681 C-8.22006273 11.70052537 -9.32179307 11.69606392 -10.45690918 11.69146729 C-11.62101932 11.69458727 -12.78512946 11.69770725 -13.98451567 11.70092177 C-17.22563499 11.70754088 -20.46660574 11.70512876 -23.70772147 11.69894934 C-27.19924465 11.69444009 -30.69074712 11.70140098 -34.18226624 11.70690918 C-41.02606016 11.71582122 -47.86981033 11.71387314 -54.713606 11.7080839 C-60.27370955 11.70357451 -65.83380079 11.70295136 -71.39390564 11.70513153 C-72.18403517 11.705438 -72.9741647 11.70574446 -73.78823754 11.70606022 C-75.39316802 11.70669964 -76.99809849 11.70734807 -78.60302895 11.7080054 C-93.66672714 11.713714 -108.73040102 11.70714251 -123.79409522 11.69640467 C-136.73074363 11.68746867 -149.66735615 11.68902057 -162.60400391 11.69824219 C-177.61231786 11.70893548 -192.62061048 11.71316462 -207.62892771 11.70701766 C-209.22808742 11.70638053 -210.82724714 11.70575179 -212.42640686 11.70513153 C-213.21330689 11.70482298 -214.00020691 11.70451443 -214.8109524 11.70419653 C-220.36696967 11.70246676 -225.92297346 11.70539074 -231.47898865 11.71009064 C-238.24619982 11.71568904 -245.01336457 11.71420504 -251.78057039 11.70352915 C-255.23596272 11.69825834 -258.69127755 11.6962395 -262.14666939 11.70282745 C-265.88565931 11.70825051 -269.62442771 11.70148827 -273.36340332 11.69146729 C-274.46513366 11.69592873 -275.566864 11.70039017 -276.70198011 11.70498681 C-277.69749655 11.69977132 -278.69301299 11.69455582 -279.71869659 11.68918228 C-281.01457474 11.68869522 -281.01457474 11.68869522 -282.33663225 11.68819833 C-284.41015625 11.4375 -284.41015625 11.4375 -286.41015625 9.4375 C-286.84765625 6.0625 -286.84765625 6.0625 -286.41015625 2.4375 C-282.51130381 -1.3245506 -277.76757052 -3.70154489 -273.03515625 -6.25 C-267.80461837 -9.10191249 -262.62495599 -11.9934051 -257.55371094 -15.12084961 C-232.13301755 -30.79694387 -203.02852096 -38.78779481 -173.41015625 -41.5625 C-172.35054688 -41.67335937 -171.2909375 -41.78421875 -170.19921875 -41.8984375 C-113.64742336 -46.96482111 -45.82293709 -35.61231797 0 0 Z M-256.41015625 -1.5625 C-256.41015625 -1.2325 -256.41015625 -0.9025 -256.41015625 -0.5625 C-220.11015625 -0.5625 -183.81015625 -0.5625 -146.41015625 -0.5625 C-146.41015625 -10.4625 -146.41015625 -20.3625 -146.41015625 -30.5625 C-186.00464585 -30.5625 -222.30426735 -21.63572071 -256.41015625 -1.5625 Z M-134.41015625 -29.5625 C-134.41015625 -19.9925 -134.41015625 -10.4225 -134.41015625 -0.5625 C-98.44015625 -0.5625 -62.47015625 -0.5625 -25.41015625 -0.5625 C-53.711253 -21.78832256 -100.15320813 -29.5625 -134.41015625 -29.5625 Z " fill="#000000" transform="translate(362.41015625,219.5625)"/>
<path d="M0 0 C5.24431673 4.52293692 8.31943389 10.15096645 9.28125 17.00390625 C9.5967499 23.72142501 7.45443748 29.41304907 3.4375 34.75 C-1.10799667 39.6789877 -7.47191549 42.12318105 -14.125 42.4375 C-22.44930628 41.49765897 -28.43123138 38.36247817 -34 32 C-37.60861659 26.2913858 -37.83393029 19.55641745 -37 13 C-35.13653364 6.29620906 -30.57150153 1.92834385 -25 -2 C-16.91062295 -6.04468853 -7.44758916 -4.83665273 0 0 Z M-23 12 C-25.26976346 14.7631903 -24.9957169 16.26983516 -24.9375 19.9375 C-24.42182961 23.11450379 -23.8544706 24.20117299 -21.875 26.9375 C-18.35921867 29.45969095 -16.32569867 30.07588945 -12 30 C-8.2753021 28.20927985 -6.39034498 26.54892262 -4 23.1875 C-2.69217801 19.01881741 -3.30271491 16.9849302 -5 13 C-7.19836159 9.78700999 -9.14709908 8.7256601 -12.875 8 C-17.29383533 7.64550388 -19.66543234 9.06240468 -23 12 Z " fill="#000000" transform="translate(424,292)"/>
<path d="M0 0 C4.93329218 3.83370296 8.27460379 7.91036631 10 14 C10.70054149 20.58114329 10.6829038 27.29556541 7 33 C1.10560225 39.62384418 -4.03979245 42.60633273 -12.9375 43.3125 C-20.23498681 43.08665902 -25.86248773 40.13751227 -31 35 C-35.23501841 28.97896743 -36.86909624 23.34323346 -36 16 C-34.11103318 8.31178473 -30.56253238 3.396384 -24 -1 C-16.67542969 -4.66228516 -7.04989787 -4.13925539 0 0 Z M-21.75 13.875 C-23.24142096 16.41041563 -23.85941674 18.0477515 -24 21 C-22.44149467 25.10132981 -20.89936759 27.88320045 -17 30 C-13.28948968 31.12928575 -11.49417996 31.17441646 -7.8125 29.875 C-4.6878236 27.7918824 -3.44417136 26.44996492 -2 23 C-1.4068632 19.01751003 -1.82575885 17.32359071 -3.75 13.75 C-6.54236797 10.33710582 -8.11629819 9.24150023 -12.4375 8.6875 C-16.48849262 9.18152349 -18.99647417 10.92479376 -21.75 13.875 Z " fill="#000000" transform="translate(115,291)"/>
<path d="M0 0 C1.30130859 -0.01224609 2.60261719 -0.02449219 3.94335938 -0.03710938 C5.81024414 -0.04000977 5.81024414 -0.04000977 7.71484375 -0.04296875 C8.85945068 -0.04707764 10.00405762 -0.05118652 11.18334961 -0.05541992 C14.0625 0.1875 14.0625 0.1875 17.0625 2.1875 C18.04558761 5.41764499 18.51682385 7.27066535 16.9921875 10.34741211 C14.19143379 13.0181207 12.13435716 12.71989051 8.3125 12.75390625 C7.65797852 12.76010483 7.00345703 12.76630341 6.32910156 12.77268982 C4.94728074 12.77978384 3.56537438 12.77662094 2.18359375 12.76391602 C0.06871468 12.75004077 -2.04174451 12.78411987 -4.15625 12.82226562 C-5.50000108 12.82321681 -6.8437577 12.82135803 -8.1875 12.81640625 C-10.02054688 12.8174939 -10.02054688 12.8174939 -11.890625 12.81860352 C-14.9375 12.1875 -14.9375 12.1875 -16.90234375 9.85131836 C-17.9375 7.1875 -17.9375 7.1875 -17.25 3.9375 C-14.32006901 -2.20140302 -5.93661936 0.00293166 0 0 Z " fill="#000000" transform="translate(118.9375,238.8125)"/>
<path d="M0 0 C1.29679687 -0.01611328 2.59359375 -0.03222656 3.9296875 -0.04882812 C5.16976563 -0.04947266 6.40984375 -0.05011719 7.6875 -0.05078125 C9.39486328 -0.05525269 9.39486328 -0.05525269 11.13671875 -0.05981445 C14 0.3125 14 0.3125 15.875 1.61254883 C17.74360761 4.43614145 17.29727745 7.04244808 17 10.3125 C13.6136731 13.6988269 8.87977293 12.65022141 4.30664062 12.68359375 C3.61030518 12.68343262 2.91396973 12.68327148 2.1965332 12.68310547 C0.07356467 12.68747721 -2.04732168 12.72378438 -4.16992188 12.76171875 C-5.51822205 12.76758733 -6.86653211 12.77155645 -8.21484375 12.7734375 C-9.44323975 12.78165527 -10.67163574 12.78987305 -11.93725586 12.79833984 C-15 12.3125 -15 12.3125 -16.93188477 10.47900391 C-18.45094709 7.3978247 -17.98377596 5.54490673 -17 2.3125 C-11.93113716 -1.06674189 -5.95118586 -0.01478923 0 0 Z " fill="#000000" transform="translate(257,238.6875)"/>
</svg>
