<?xml version="1.0" encoding="UTF-8"?>
<svg version="1.1" xmlns="http://www.w3.org/2000/svg" width="512" height="512">
<path d="M0 0 C5.30713792 4.50745055 10.09667248 9.58662378 14.92675781 14.59228516 C18.731937 18.51479227 22.76437383 22.11459906 26.93457031 25.64306641 C29.82672572 24.32457799 31.98077006 22.87904822 34.29003906 20.70166016 C34.9075 20.12254883 35.52496094 19.5434375 36.16113281 18.94677734 C36.80824219 18.33092773 37.45535156 17.71507812 38.12207031 17.08056641 C38.79625 16.44795898 39.47042969 15.81535156 40.16503906 15.16357422 C43.69842844 11.83233548 47.10978654 8.43399291 50.43457031 4.89306641 C63.772241 -8.54432518 82.91597714 -17.36542405 100.93457031 -22.35693359 C102.07023437 -22.67662109 103.20589844 -22.99630859 104.37597656 -23.32568359 C135.31255489 -30.5342067 168.95202891 -24.79684588 195.93457031 -8.35693359 C224.42619067 9.52081189 243.00056339 36.80476003 250.50488281 69.40576172 C256.51838865 100.71699325 250.69612494 133.4944127 233.03125 160.04443359 C230.23007487 164.12771381 227.20048179 167.92387896 223.93457031 171.64306641 C223.08636719 172.61244141 222.23816406 173.58181641 221.36425781 174.58056641 C216.03360293 180.55621241 210.40996217 186.1339449 204.5324707 191.56860352 C193.58349804 201.79235183 183.04297488 212.42320388 172.47370028 223.03547406 C169.63161976 225.88771356 166.78614058 228.7365583 163.94093323 231.5856781 C156.74829113 238.78929551 149.55996279 245.99721022 142.37207031 253.20556641 C134.57531184 261.02445218 126.77774718 268.84252542 118.97530991 276.65574497 C115.60751571 280.02848383 112.24216405 283.40363445 108.87874687 286.780738 C106.78548743 288.88150167 104.69011764 290.98015091 102.59419441 293.07825661 C101.1747669 294.50042026 99.75786404 295.92510235 98.34106445 297.34988403 C93.91095505 301.78035595 89.41962909 306.05371477 84.66663456 310.13586903 C82.32764064 312.17120086 80.13918754 314.33328176 77.95898438 316.53686523 C77.07156555 317.43081497 76.18414673 318.32476471 75.26983643 319.24580383 C74.81025795 319.71112329 74.35067947 320.17644276 73.87717438 320.65586281 C72.41646309 322.13423779 70.95200235 323.60880709 69.48651123 325.08244324 C65.32664212 329.26654574 61.17269473 333.45649238 57.02294922 337.65063477 C54.46980824 340.23057025 51.91180527 342.80560181 49.35076141 345.37769127 C48.38084413 346.35380055 47.41282637 347.33180125 46.44678497 348.3117466 C45.09998036 349.67779269 43.74642063 351.03716883 42.39257812 352.39624023 C41.62617004 353.17010574 40.85976196 353.94397125 40.07012939 354.74128723 C36.18005332 358.20551621 33.23214822 358.95225753 28.05957031 359.01806641 C27.05152344 359.04642578 26.04347656 359.07478516 25.00488281 359.10400391 C19.01416994 358.2046348 14.92491736 353.8808342 10.79052734 349.71020508 C10.07697083 348.9946772 10.07697083 348.9946772 9.34899902 348.26469421 C7.792121 346.70137567 6.24235818 345.13119492 4.69238281 343.56103516 C3.59962637 342.46199641 2.50634523 341.36347915 1.41256714 340.26545715 C-1.45898193 337.38065072 -4.32490741 334.49032826 -7.18920898 331.59832764 C-11.76417195 326.9801535 -16.34583356 322.36865215 -20.93094254 317.76055336 C-22.51965372 316.16174002 -24.10483622 314.55949173 -25.68966675 312.95683289 C-26.68052178 311.95913792 -27.67149297 310.9615583 -28.66259766 309.96411133 C-29.51498016 309.1034758 -30.36736267 308.24284027 -31.24557495 307.35612488 C-33.37013328 305.31202988 -35.50649573 303.38395697 -37.74038696 301.46711731 C-42.9594313 296.93654216 -47.79787045 292.03494083 -52.66894531 287.13720703 C-53.71109466 286.09313442 -54.75347495 285.04929227 -55.79606628 284.00566101 C-58.02639292 281.77219294 -60.25516124 279.53718587 -62.48271179 277.3009491 C-66.0112827 273.75876144 -69.5437491 270.22047548 -73.07678223 266.68273926 C-81.21258154 258.5349396 -89.34334145 250.38211717 -97.47405243 242.22924042 C-104.93114354 234.75192446 -112.38931604 227.27569548 -119.85155821 219.80351973 C-123.35732858 216.29279307 -126.86065235 212.7796492 -130.36206818 209.26457977 C-132.54710774 207.07203607 -134.73425746 204.88160643 -136.92196083 202.69172096 C-137.92896233 201.68286106 -138.93510606 200.67314405 -139.94028282 199.66246605 C-144.93663659 194.63965053 -149.95832468 189.71883503 -155.35251617 185.1223526 C-177.52050629 165.97789406 -191.91337721 138.4850421 -196.06542969 109.64306641 C-196.30938156 104.68788648 -196.31115079 99.72868648 -196.31542969 94.76806641 C-196.31610443 94.06987793 -196.31677917 93.37168945 -196.31747437 92.65234375 C-196.30162662 82.35101 -195.89424462 72.63591264 -193.06542969 62.64306641 C-192.74832031 61.45068359 -192.43121094 60.25830078 -192.10449219 59.02978516 C-183.0391959 28.58710577 -161.71250332 3.60780466 -134.09277344 -11.56787109 C-125.40042332 -16.18591305 -116.56508521 -19.72533962 -107.06542969 -22.35693359 C-105.92976563 -22.67662109 -104.79410156 -22.99630859 -103.62402344 -23.32568359 C-67.74340828 -31.68621528 -28.78307102 -22.71658016 0 0 Z M-145.06542969 39.64306641 C-151.6183047 48.15415466 -156.43084642 57.54311868 -160.06542969 67.64306641 C-160.57589844 69.05652344 -160.57589844 69.05652344 -161.09667969 70.49853516 C-167.30947668 91.8118804 -163.55323852 115.30938494 -153.45605469 134.63134766 C-147.58577379 144.82622293 -139.94109668 153.19939809 -131.63574219 161.42919922 C-130.50406327 162.56167108 -129.37303974 163.6947982 -128.24261475 164.82852173 C-125.19982701 167.87639733 -122.14788352 170.91494518 -119.09395599 173.95165348 C-115.88416564 177.14628732 -112.68259996 180.34914472 -109.47998047 183.55096436 C-104.10527232 188.92199283 -98.72498485 194.28737762 -93.34082031 199.64892578 C-86.44722308 206.51362354 -79.5629366 213.3875804 -72.68154907 220.26451492 C-66.739883 226.20218965 -60.7939701 232.1356065 -54.84737396 238.06834316 C-52.94766676 239.96396988 -51.04853254 241.86016921 -49.1494751 243.75644684 C-46.15758971 246.7434064 -43.16305357 249.72768467 -40.16651154 252.70997238 C-39.07248528 253.79951163 -37.97926747 254.88986341 -36.88695526 255.98112106 C-31.65075936 261.21113248 -26.38470355 266.35083095 -20.76325989 271.16982841 C-18.38454796 273.2338798 -16.15787234 275.43092252 -13.93457031 277.66040039 C-13.01421997 278.58082626 -12.09386963 279.50125214 -11.14562988 280.4495697 C-10.17092479 281.42937845 -9.19627599 282.4092432 -8.22167969 283.38916016 C-7.2020026 284.41070688 -6.18210113 285.43202967 -5.1619873 286.45314026 C-2.50317908 289.11573077 0.15260989 291.78131239 2.80773926 294.4475708 C5.52785425 297.17799312 8.25087217 299.90551714 10.97363281 302.63330078 C16.29675894 307.9670884 21.61669249 313.30404556 26.93457031 318.64306641 C30.62574065 317.09650092 32.95709165 314.85668378 35.75976562 312.02905273 C36.45825371 311.32859329 36.45825371 311.32859329 37.17085266 310.61398315 C38.70612006 309.0722371 40.2342812 307.52363534 41.76269531 305.97509766 C42.83589234 304.89562307 43.90961092 303.81666678 44.98382568 302.73820496 C47.81264058 299.89609298 50.63584505 297.04847844 53.4574585 294.19921875 C57.95754382 289.65603617 62.46421274 285.11941229 66.97438812 280.5862484 C68.538717 279.01181167 70.09951713 277.43394109 71.65997314 275.85566711 C72.6371252 274.87167397 73.61439401 273.88779675 74.59179688 272.90405273 C75.4324469 272.05514969 76.27309692 271.20624664 77.13922119 270.33161926 C79.24388928 268.30735998 81.36001057 266.39728263 83.57234192 264.49835205 C88.97491216 259.80782963 94.00644033 254.74339782 99.07299805 249.69750977 C100.17269202 248.60573519 101.27256068 247.51413655 102.37258911 246.42269897 C105.95814313 242.86314402 109.53845138 239.29833807 113.11816406 235.73291016 C114.35867412 234.49776814 115.59918891 233.26263086 116.83970833 232.02749825 C122.00380334 226.88499591 127.16646756 221.74106421 132.32542324 216.59340572 C139.67963007 209.25541916 147.04218089 201.92604165 154.4167313 194.60849851 C159.62413901 189.43995873 164.82176932 184.26171195 170.01241261 179.07633692 C173.10226074 175.99011798 176.19603278 172.90810709 179.30038261 169.83646965 C182.22460251 166.94263027 185.1363595 164.03677976 188.03958511 161.12188339 C189.09733579 160.06391449 190.15925291 159.01008913 191.2259655 157.96115685 C202.47244955 146.89176932 210.56644867 134.56025057 215.93457031 119.64306641 C216.27488281 118.70076172 216.61519531 117.75845703 216.96582031 116.78759766 C223.19171369 95.42932455 219.5150928 71.57575887 209.06347656 52.33056641 C197.51747326 31.94849624 179.99106401 17.94702006 157.93457031 10.64306641 C156.97164063 10.30404297 156.00871094 9.96501953 155.01660156 9.61572266 C133.3674379 3.27581913 109.26924325 7.40857736 89.50097656 17.40869141 C78.2437889 24.1291478 69.25773514 32.95420047 60.18457031 42.26806641 C57.86033914 44.63910278 55.53177598 47.00582016 53.20019531 49.36962891 C52.64883911 49.92894104 52.09748291 50.48825317 51.52941895 51.06451416 C36.37330977 66.35200152 36.37330977 66.35200152 28.12207031 66.89306641 C22.25004804 66.77519735 18.63000103 64.48187379 14.55957031 60.39306641 C13.99866699 59.80090332 13.43776367 59.20874023 12.85986328 58.59863281 C11.10778611 56.81900586 9.31073316 55.21989752 7.39941406 53.61572266 C3.47324644 50.21238186 -0.13965757 46.56155997 -3.75390625 42.83149719 C-17.71226919 28.43291583 -30.72684668 17.04699061 -50.06542969 10.64306641 C-51.02835937 10.30404297 -51.99128906 9.96501953 -52.98339844 9.61572266 C-86.84658925 -0.30102823 -122.67526577 13.75654055 -145.06542969 39.64306641 Z " fill="#000000" transform="translate(228.0654296875,89.35693359375)"/>
</svg>
