<?xml version="1.0" encoding="UTF-8"?>
<svg version="1.1" xmlns="http://www.w3.org/2000/svg" width="512" height="512">
<path d="M0 0 C2.53336141 2.3691966 5.13722756 4.55793478 7.83984375 6.73046875 C14.27946368 11.9456539 20.50689778 17.39378627 26.75585938 22.83398438 C29.73089564 25.41684284 32.72178435 27.98103789 35.71484375 30.54296875 C36.28823486 31.03385986 36.86162598 31.52475098 37.45239258 32.03051758 C38.60764893 33.01932078 39.76300351 34.00800924 40.91845703 34.99658203 C43.24704536 36.98942346 45.57404637 38.98411293 47.90087891 40.97900391 C49.06573431 41.97759058 50.23077254 42.97596403 51.39599609 43.97412109 C54.35322897 46.50759152 57.30781433 49.04404499 60.2578125 51.5859375 C65.59069697 56.17653428 70.9342032 60.73808273 76.40234375 65.16796875 C80.77742122 68.71792196 84.95783567 72.43610696 89.12109375 76.23046875 C91.74079185 78.55908928 94.42749685 80.77609822 97.15234375 82.98046875 C100.74712025 85.88860255 104.23495003 88.86588207 107.65234375 91.98046875 C110.97223861 95.00329296 114.34998487 97.90559036 117.83984375 100.73046875 C124.27946368 105.9456539 130.50689778 111.39378627 136.75585938 116.83398438 C139.73089534 119.41684258 142.72175458 121.98107307 145.71484375 124.54296875 C146.28750977 125.03313477 146.86017578 125.52330078 147.45019531 126.02832031 C148.60474813 127.01635735 149.75937041 128.00431323 150.9140625 128.9921875 C152.67187293 130.49718924 154.42798821 132.00414578 156.18359375 133.51171875 C161.91239177 138.43059144 167.64749826 143.34208123 173.40234375 148.23046875 C173.93601562 148.68526611 174.4696875 149.14006348 175.01953125 149.60864258 C178.34229973 152.42427865 181.75030714 155.0927542 185.21484375 157.73046875 C189.32244954 161.02190531 191.79039374 163.51526872 193.65234375 168.48046875 C194.06736124 173.19001508 193.24764332 175.76305645 190.21484375 179.41796875 C186.76027792 182.19847296 184.44356066 183.00182734 179.9375 182.9609375 C175.32177417 181.99045156 172.09033889 178.53449536 168.65234375 175.48046875 C167.60779663 174.60170347 166.56030939 173.72642381 165.51025391 172.85424805 C164.56714355 172.07090088 163.6240332 171.28755371 162.65234375 170.48046875 C162.6490336 171.53752864 162.64572346 172.59458853 162.642313 173.68368053 C162.56136609 199.38870226 162.46906507 225.09366403 162.36481667 250.7986021 C162.31466684 263.22924757 162.26822417 275.65988637 162.23046875 288.09057617 C162.19755683 298.92349934 162.15773 309.75637107 162.10955369 320.58923751 C162.08428081 326.32664225 162.0625018 332.06401284 162.04899979 337.80145836 C162.03618668 343.19977707 162.01414024 348.59797869 161.98496056 353.99623299 C161.97587893 355.97917797 161.97019319 357.9621418 161.96813011 359.94510651 C161.96481174 362.649751 161.94934568 365.3540627 161.93081665 368.05863953 C161.93275138 368.84561067 161.93468612 369.63258181 161.93667948 370.44340056 C161.89455829 374.54823755 161.60907913 377.83529667 159.65234375 381.48046875 C155.22255744 385.56950227 152.0478089 386.60453181 146.1149931 386.61189651 C144.95623281 386.61573766 143.79747253 386.6195788 142.6035983 386.62353635 C140.68515291 386.62223662 140.68515291 386.62223662 138.72795105 386.62091064 C137.36020347 386.62349372 135.99245664 386.62650672 134.62471086 386.62991405 C130.8577463 386.63799404 127.09080078 386.63977417 123.32382858 386.64051151 C119.26441871 386.64236032 115.20501877 386.64990677 111.14561462 386.65664673 C102.26550869 386.67023748 93.38540726 386.67625587 84.50529265 386.68065739 C78.96249975 386.68341845 73.4197086 386.68765554 67.87691689 386.69216156 C52.53612852 386.70435499 37.19534156 386.71465429 21.85454845 386.71803665 C20.38135015 386.718366 20.38135015 386.718366 18.87839027 386.718702 C17.89388459 386.71892028 16.90937892 386.71913856 15.89503974 386.71936345 C13.89999719 386.71980692 11.90495465 386.72025348 9.90991211 386.72070312 C8.4254915 386.72103527 8.4254915 386.72103527 6.9110826 386.72137412 C-9.1281464 386.72532306 -25.16733 386.74277967 -41.20654146 386.76606265 C-57.66642785 386.78976381 -74.12629144 386.80223793 -90.58619517 386.80340457 C-99.83079703 386.804322 -109.07533972 386.81009155 -118.31992531 386.82822418 C-126.19115805 386.84360848 -134.06231335 386.84875552 -141.93355826 386.84048608 C-145.95048435 386.83657369 -149.96725439 386.83753779 -153.98416138 386.85154343 C-157.66123743 386.8642471 -161.33803962 386.86311617 -165.0151151 386.85095271 C-166.97598113 386.8480593 -168.93685173 386.85995822 -170.89768058 386.87237477 C-181.60285356 386.81190296 -181.60285356 386.81190296 -186.34765625 383.48046875 C-190.55271686 378.84040187 -190.49848411 374.2894809 -190.50587463 368.29914856 C-190.5132816 367.03348597 -190.5132816 367.03348597 -190.5208382 365.74225444 C-190.53624027 362.90475042 -190.54458116 360.06726909 -190.55297852 357.22973633 C-190.56255491 355.19976094 -190.57256485 353.16978756 -190.58297729 351.13981628 C-190.61005828 345.61952163 -190.63105055 340.09921839 -190.65097928 334.5788939 C-190.67281914 328.81329671 -190.7002176 323.04772606 -190.72703552 317.28215027 C-190.77698948 306.35998037 -190.82191828 295.43779576 -190.86505789 284.51559705 C-190.91440717 272.08285653 -190.96933386 259.65014263 -191.02473748 247.21742785 C-191.13859902 221.63846631 -191.24542897 196.05947924 -191.34765625 170.48046875 C-192.59482422 171.52847656 -192.59482422 171.52847656 -193.8671875 172.59765625 C-194.96477801 173.51700557 -196.0624379 174.43627207 -197.16015625 175.35546875 C-197.70736328 175.81566406 -198.25457031 176.27585937 -198.81835938 176.75 C-206.20240551 182.92574767 -206.20240551 182.92574767 -212.3515625 182.72265625 C-215.41350988 182.35114796 -217.03814862 181.52603265 -219.34765625 179.48046875 C-221.4102679 175.90527522 -222.29300044 173.21832215 -222.59765625 169.10546875 C-219.68115789 160.64762351 -210.8709569 155.15351628 -204.1015625 149.73046875 C-201.43839175 147.55460159 -198.88723177 145.29868666 -196.34765625 142.98046875 C-193.02776139 139.95764454 -189.65001513 137.05534714 -186.16015625 134.23046875 C-179.72053632 129.0152836 -173.49310222 123.56715123 -167.24414062 118.12695312 C-164.26910436 115.54409466 -161.27821565 112.97989961 -158.28515625 110.41796875 C-157.71176514 109.92707764 -157.13837402 109.43618652 -156.54760742 108.93041992 C-155.39235107 107.94161672 -154.23699649 106.95292826 -153.08154297 105.96435547 C-150.75295464 103.97151404 -148.42595363 101.97682457 -146.09912109 99.98193359 C-144.93426569 98.98334692 -143.76922746 97.98497347 -142.60400391 96.98681641 C-139.64677103 94.45334598 -136.69218567 91.91689251 -133.7421875 89.375 C-128.40930303 84.78440322 -123.0657968 80.22285477 -117.59765625 75.79296875 C-113.22257878 72.24301554 -109.04216433 68.52483054 -104.87890625 64.73046875 C-101.36966139 61.61113999 -97.71603502 58.68297742 -94.06640625 55.73046875 C-91.42617896 53.54545306 -88.88035905 51.28875484 -86.34765625 48.98046875 C-83.02776139 45.95764454 -79.65001513 43.05534714 -76.16015625 40.23046875 C-69.72053632 35.0152836 -63.49310222 29.56715123 -57.24414062 24.12695312 C-53.69805229 21.04832031 -50.13001228 17.99535592 -46.56079102 14.94360352 C-43.58023316 12.39504725 -40.60520903 9.84057009 -37.640625 7.2734375 C-13.96277838 -13.20689865 -13.96277838 -13.20689865 0 0 Z M-15.34765625 19.48046875 C-16.63736328 20.58841797 -16.63736328 20.58841797 -17.953125 21.71875 C-23.90174285 26.82532605 -29.85718239 31.92302116 -35.84765625 36.98046875 C-40.36471963 40.79412839 -44.86267768 44.62912953 -49.34765625 48.48046875 C-54.36404201 52.78813776 -59.40087729 57.07041449 -64.453125 61.3359375 C-68.43349226 64.6994924 -72.39409249 68.08546588 -76.34765625 71.48046875 C-81.36404201 75.78813776 -86.40087729 80.07041449 -91.453125 84.3359375 C-95.43349226 87.6994924 -99.39409249 91.08546588 -103.34765625 94.48046875 C-108.36247212 98.78678966 -113.39699515 103.0686117 -118.44873047 107.33154297 C-122.47628097 110.73364432 -126.47665641 114.16640458 -130.47265625 117.60546875 C-134.63449805 121.18673477 -138.83034794 124.71205005 -143.09765625 128.16796875 C-147.43090844 131.6815882 -151.58074251 135.34821079 -155.66796875 139.14453125 C-158.34765625 141.48046875 -158.34765625 141.48046875 -160.54217434 142.51804447 C-163.60317448 144.20188058 -165.28619594 145.63160425 -167.34765625 148.48046875 C-169.13954174 155.0587977 -168.48208414 162.26360274 -168.36938477 169.01147461 C-168.36684512 171.13070568 -168.36827301 173.24994467 -168.37336731 175.36917114 C-168.37594846 181.11513646 -168.32305671 186.85940911 -168.26020169 192.60498118 C-168.20391945 198.61201937 -168.19865153 204.61909687 -168.18797302 210.62635803 C-168.16000579 221.99856608 -168.08615836 233.36999496 -167.99582762 244.74185997 C-167.89521235 257.68967055 -167.8457421 270.63751844 -167.8005687 283.58562267 C-167.70650842 310.21776946 -167.54146726 336.84884819 -167.34765625 363.48046875 C-138.96765625 363.48046875 -110.58765625 363.48046875 -81.34765625 363.48046875 C-81.31027344 354.10511719 -81.27289063 344.72976563 -81.234375 335.0703125 C-81.20410041 329.13214665 -81.17307762 323.19400035 -81.13867188 317.25585938 C-81.08419665 307.82985199 -81.03278324 298.40389888 -81.0012207 288.9777832 C-80.97821907 282.11257201 -80.94479695 275.2475034 -80.89895469 268.38240534 C-80.87505151 264.74866385 -80.85630378 261.11506331 -80.85004234 257.48124504 C-80.84285029 253.42080506 -80.81239032 249.36085454 -80.7800293 245.30053711 C-80.78218193 243.50086739 -80.78218193 243.50086739 -80.78437805 241.6648407 C-80.65827375 230.48197214 -80.65827375 230.48197214 -77.34765625 225.48046875 C-71.65003901 221.84949455 -65.98886467 222.05260976 -59.3828125 222.09228516 C-57.75954544 222.08439972 -57.75954544 222.08439972 -56.10348511 222.07635498 C-52.5388938 222.06318939 -48.97475182 222.07188123 -45.41015625 222.08203125 C-42.92586176 222.08000954 -40.44156785 222.07709728 -37.95727539 222.07333374 C-32.75563903 222.06891503 -27.55415741 222.07532707 -22.35253906 222.08935547 C-15.69114132 222.10644693 -9.03025736 222.09660343 -2.36885071 222.07863808 C2.75958988 222.06778816 7.88794475 222.07125219 13.01638794 222.07902145 C15.47234134 222.0810201 17.92830257 222.07857598 20.38424683 222.07158279 C23.81887373 222.06394871 27.2529165 222.07560078 30.6875 222.09228516 C31.69861847 222.08621246 32.70973694 222.08013977 33.75149536 222.07388306 C39.43717153 222.12494818 43.79176029 222.38291895 48.65234375 225.48046875 C52.66370205 231.54061376 52.09316654 238.23628272 52.0847168 245.30053711 C52.10000427 247.218647 52.10000427 247.218647 52.11560059 249.17550659 C52.14307745 252.66467315 52.15244231 256.15367673 52.15845466 259.64293742 C52.16786274 263.29584199 52.19406801 266.94862598 52.21846008 270.60145569 C52.26206206 277.51085377 52.29064762 284.42022837 52.31378347 291.32972199 C52.3459381 300.67198699 52.4014005 310.0141121 52.45552921 319.35627079 C52.54013578 334.06429509 52.59369699 348.77226497 52.65234375 363.48046875 C81.03234375 363.48046875 109.41234375 363.48046875 138.65234375 363.48046875 C138.96861944 335.65515928 139.22640485 307.8313094 139.37771416 280.00465775 C139.4498434 267.08366711 139.54814195 254.16387412 139.70849609 241.24365234 C139.84822808 229.97963198 139.93840278 218.71647905 139.96958268 207.45161605 C139.98780457 201.48876897 140.0304858 195.52840294 140.13256454 189.56635284 C140.22797445 183.94800697 140.2568348 178.33315035 140.23585129 172.71407127 C140.23968653 170.65807017 140.26732354 168.60194615 140.3212204 166.54664803 C140.87104167 154.77065279 140.87104167 154.77065279 135.65726089 144.70674896 C132.79480404 142.05565999 129.72813164 139.83486413 126.46303773 137.70873785 C123.49140869 135.69295817 120.85987913 133.33661045 118.15234375 130.98046875 C117.08087166 130.07251126 116.00811865 129.16606132 114.93359375 128.26171875 C110.89943922 124.84820338 106.89199724 121.40370321 102.8828125 117.9609375 C98.98650844 114.61754577 95.07529158 111.29254393 91.15234375 107.98046875 C86.04119513 103.66521675 80.95765233 99.31880217 75.8828125 94.9609375 C71.98650844 91.61754577 68.07529158 88.29254393 64.15234375 84.98046875 C59.04119513 80.66521675 53.95765233 76.31880217 48.8828125 71.9609375 C44.98650844 68.61754577 41.07529158 65.29254393 37.15234375 61.98046875 C32.04119513 57.66521675 26.95765233 53.31880217 21.8828125 48.9609375 C17.46161567 45.16713889 13.0227182 41.394955 8.56445312 37.64477539 C5.65126073 35.18999285 2.76426381 32.70977666 -0.09765625 30.1953125 C-0.72349609 29.64875 -1.34933594 29.1021875 -1.99414062 28.5390625 C-3.19820422 27.48598264 -4.39771145 26.42766198 -5.59179688 25.36328125 C-8.68588244 22.66550041 -11.41570091 20.7202084 -15.34765625 19.48046875 Z M-58.34765625 245.48046875 C-58.34765625 284.42046875 -58.34765625 323.36046875 -58.34765625 363.48046875 C-29.30765625 363.48046875 -0.26765625 363.48046875 29.65234375 363.48046875 C29.65234375 324.54046875 29.65234375 285.60046875 29.65234375 245.48046875 C0.61234375 245.48046875 -28.42765625 245.48046875 -58.34765625 245.48046875 Z " fill="#000000" transform="translate(270.34765625,98.51953125)"/>
<path d="M0 0 C5.09457414 2.71710621 9.07135089 6.70843496 13.3125 10.58984375 C15.88043078 12.89277004 18.50492962 15.08238732 21.1875 17.25 C27.62711993 22.46518515 33.85455403 27.91331752 40.10351562 33.35351562 C44.79075787 37.42287218 49.5143272 41.45014606 54.23095703 45.48535156 C56.0810808 47.0694211 57.92942445 48.65554702 59.77734375 50.2421875 C60.4005249 50.77706787 61.02370605 51.31194824 61.66577148 51.86303711 C62.8465285 52.87657391 64.02704878 53.89038662 65.20727539 54.90454102 C65.74731201 55.36787842 66.28734863 55.83121582 66.84375 56.30859375 C67.54274414 56.90885376 67.54274414 56.90885376 68.25585938 57.52124023 C70.82310176 59.69786217 73.41260934 61.84737211 76 64 C76.02187378 62.14652954 76.02187378 62.14652954 76.04418945 60.25561523 C76.10237196 55.65018472 76.17960345 51.04523294 76.26245117 46.44018555 C76.29560684 44.45100706 76.32366765 42.46173661 76.34643555 40.47241211 C76.380154 37.60490916 76.43247823 34.73824183 76.48828125 31.87109375 C76.49467117 30.98852402 76.5010611 30.10595428 76.50764465 29.19664001 C76.65278302 23.03492372 77.53618002 18.07977498 81.5 13.125 C84.66153884 10.75384587 87.77759107 10.86461459 91.56958008 10.83886719 C92.71119095 10.82925964 93.85280182 10.8196521 95.02900696 10.80975342 C96.26337997 10.80550354 97.49775299 10.80125366 98.76953125 10.796875 C100.03842697 10.79117493 101.30732269 10.78547485 102.6146698 10.77960205 C105.30215033 10.77014799 107.98951909 10.76325329 110.67700195 10.75976562 C114.11013066 10.75428836 117.54286127 10.73027298 120.97586536 10.70179367 C124.26122361 10.67861608 127.5466027 10.67671407 130.83203125 10.671875 C132.67448174 10.6533548 132.67448174 10.6533548 134.55415344 10.63446045 C145.43754465 10.66283597 145.43754465 10.66283597 150 14 C152.63005072 16.93555907 153.37201814 18.7467789 153.33143616 22.67240906 C153.32952271 23.60728653 153.32760925 24.542164 153.32563782 25.50537109 C153.30849228 26.5241333 153.29134674 27.54289551 153.27368164 28.5925293 C153.26781036 29.67105667 153.26193909 30.74958405 153.25588989 31.86079407 C153.24223481 34.20383131 153.22225636 36.54683821 153.19673347 38.88977623 C153.15988158 42.60188675 153.14737812 46.31330636 153.14268494 50.02558899 C153.12792318 60.58060711 153.09285945 71.13476698 152.9831543 81.68920898 C152.91780236 88.14567177 152.90122339 94.60071868 152.91586113 101.05747414 C152.91207683 103.51466271 152.89003951 105.97189511 152.8491993 108.42874718 C151.91729089 121.52289524 151.91729089 121.52289524 156.11715698 133.40908813 C158.64422233 135.72059559 161.02635933 137.32438101 164 139 C165.75027154 140.39050759 167.48196645 141.80496812 169.1875 143.25 C170.10273438 143.99121094 171.01796875 144.73242188 171.9609375 145.49609375 C177.4350981 150.00629548 182.75426306 154.6965829 188.10351562 159.35351562 C191.07855159 161.93637383 194.06941083 164.50060432 197.0625 167.0625 C197.63516602 167.55266602 198.20783203 168.04283203 198.79785156 168.54785156 C199.95240438 169.5358886 201.10702666 170.52384448 202.26171875 171.51171875 C204.01952918 173.01672049 205.77564446 174.52367703 207.53125 176.03125 C213.1713271 180.87350434 218.82098386 185.70344615 224.5 190.5 C229.17328701 194.45056192 233.84311145 198.40511293 238.5 202.375 C239.07556641 202.86291016 239.65113281 203.35082031 240.24414062 203.85351562 C250.68866183 212.77615595 250.68866183 212.77615595 251.2734375 216.953125 C251.45299694 221.01393085 251.44192598 224.12391441 249 227.5 C246.00235286 229.99803928 244.02065473 231.04989869 240.08984375 231.2109375 C232.02056097 230.39646784 226.63135208 224.13323557 221.0625 218.85546875 C218.36967276 216.31364905 215.57304566 213.94803601 212.6875 211.625 C208.24940211 208.04897868 203.92179485 204.36805605 199.625 200.625 C194.92272211 196.52979307 190.20486632 192.45681497 185.4375 188.4375 C180.94017638 184.64585511 176.46238201 180.83271698 172 177 C167.5150648 173.14861062 163.01705464 169.313669 158.5 165.5 C153.38885138 161.184748 148.30530858 156.83833342 143.23046875 152.48046875 C138.80418667 148.68230652 134.35640661 144.91039253 129.89892578 141.14892578 C125.87137434 137.74682364 121.87108182 134.3139698 117.875 130.875 C113.8137519 127.38180518 109.72481221 123.93551449 105.5625 120.5625 C99.21723119 115.40813208 93.07490552 110.02637235 86.90966797 104.65966797 C79.76608759 98.45127377 72.60354128 92.27176028 65.25 86.3125 C60.86848205 82.75732096 56.68289319 79.03230463 52.51171875 75.234375 C49.99848768 72.99865467 47.42688521 70.86622318 44.8125 68.75 C40.36147808 65.14529915 36.00801395 61.44629733 31.6875 57.6875 C30.73725952 56.86088867 30.73725952 56.86088867 29.76782227 56.01757812 C28.48168345 54.89837515 27.19563212 53.77907163 25.90966797 52.65966797 C10.78669248 39.42194708 10.78669248 39.42194708 -5 27 C-11.89514063 32.54764953 -18.63366001 38.24610307 -25.30664062 44.05712891 C-29.89029648 48.04639258 -34.51007841 51.98903638 -39.15576172 55.90576172 C-43.12100023 59.25071239 -47.06465129 62.61994922 -51 66 C-56.01633723 70.3077251 -61.05322153 74.58994615 -66.10546875 78.85546875 C-70.08583601 82.21902365 -74.04643624 85.60499713 -78 89 C-83.01481587 93.30632091 -88.0493389 97.58814295 -93.10107422 101.85107422 C-97.12862472 105.25317557 -101.12900016 108.68593583 -105.125 112.125 C-109.2868418 115.70626602 -113.48269169 119.2315813 -117.75 122.6875 C-122.13151795 126.24267904 -126.31710681 129.96769537 -130.48828125 133.765625 C-133.00151232 136.00134533 -135.57311479 138.13377682 -138.1875 140.25 C-143.32694428 144.41084769 -148.32326152 148.71734489 -153.30908203 153.05932617 C-157.89199641 157.04777241 -162.51091573 160.98974232 -167.15576172 164.90576172 C-171.12100023 168.25071239 -175.06465129 171.61994922 -179 175 C-184.01476732 179.30637696 -189.04933942 183.58814339 -194.10107422 187.85107422 C-198.12862472 191.25317557 -202.12900016 194.68593583 -206.125 198.125 C-210.2868418 201.70626602 -214.48269169 205.2315813 -218.75 208.6875 C-222.27525366 211.54274931 -225.66391958 214.48869005 -229 217.5625 C-243.56622068 230.84483905 -243.56622068 230.84483905 -248.98828125 231.08984375 C-253.43152547 230.79860589 -255.51971978 230.39206549 -259.0625 227.5 C-261.35408638 224.20931368 -261.52477432 221.17479937 -261.46875 217.24609375 C-260.38540122 212.05504752 -257.3118133 209.15098244 -253.25 206 C-248.63172466 202.3309354 -244.13206653 198.56516339 -239.6875 194.6875 C-238.40243645 193.56890391 -237.11727969 192.4504149 -235.83203125 191.33203125 C-235.19475098 190.77725098 -234.5574707 190.2224707 -233.90087891 189.65087891 C-225.95633072 182.75118267 -217.93994734 175.93468727 -209.8984375 169.1484375 C-205.87096844 165.74659471 -201.87082583 162.31391441 -197.875 158.875 C-193.7131582 155.29373398 -189.51730831 151.7684187 -185.25 148.3125 C-180.86848205 144.75732096 -176.68289319 141.03230463 -172.51171875 137.234375 C-169.99848768 134.99865467 -167.42688521 132.86622318 -164.8125 130.75 C-159.67305572 126.58915231 -154.67673848 122.28265511 -149.69091797 117.94067383 C-145.10800359 113.95222759 -140.48908427 110.01025768 -135.84423828 106.09423828 C-131.87899977 102.74928761 -127.93534871 99.38005078 -124 96 C-118.98366277 91.6922749 -113.94677847 87.41005385 -108.89453125 83.14453125 C-104.91416399 79.78097635 -100.95356376 76.39500287 -97 73 C-91.98361424 68.69233099 -86.94677896 64.41005426 -81.89453125 60.14453125 C-77.91416399 56.78097635 -73.95356376 53.39500287 -70 50 C-64.98361424 45.69233099 -59.94677896 41.41005426 -54.89453125 37.14453125 C-50.91416282 33.78097536 -46.9536787 30.39487028 -43 27 C-36.8722223 21.74119396 -30.73287339 16.49689491 -24.54931641 11.30371094 C-23.51310784 10.43176739 -22.47893564 9.55739833 -21.44677734 8.68066406 C-19.96974145 7.4267639 -18.48500007 6.18195789 -17 4.9375 C-16.154375 4.22464844 -15.30875 3.51179688 -14.4375 2.77734375 C-9.45540063 -0.85543704 -6.01738723 -1.47795476 0 0 Z M100 34 C99.74641309 41.08506468 99.5279176 48.1542335 99.39575195 55.24023438 C99.34064826 57.64605195 99.26573819 60.05150471 99.17016602 62.45605469 C97.91993425 76.21352677 97.91993425 76.21352677 102.29760742 88.69726562 C105.07975954 91.237563 107.76348535 93.09069307 111 95 C112.91768057 96.55680111 114.81675391 98.13710275 116.6875 99.75 C121.04288177 103.29933133 125.49424082 106.62068061 130 110 C130 84.92 130 59.84 130 34 C120.1 34 110.2 34 100 34 Z " fill="#000000" transform="translate(261,28)"/>
</svg>
