<?xml version="1.0" encoding="UTF-8"?>
<svg version="1.1" xmlns="http://www.w3.org/2000/svg" width="512" height="512">
<path d="M0 0 C1.08377882 -0.00538554 2.16755765 -0.01077108 3.28417826 -0.01631981 C6.88663257 -0.03053557 10.48871612 -0.02351134 14.09118652 -0.01637268 C16.68576857 -0.02207951 19.28034811 -0.02904497 21.87492371 -0.03717041 C28.17307382 -0.05430412 34.47112393 -0.0552099 40.76929128 -0.04995751 C45.890989 -0.04590504 51.01265731 -0.04737209 56.13435364 -0.05270576 C56.86515803 -0.05345419 57.59596241 -0.05420261 58.34891239 -0.05497371 C59.83383748 -0.05650529 61.31876256 -0.05804363 62.80368763 -0.05958868 C76.70599673 -0.07329363 90.60824944 -0.06788977 104.51055723 -0.05640347 C117.21244047 -0.04646931 129.91417808 -0.05941844 142.61603886 -0.08333766 C155.68052872 -0.10775315 168.74495082 -0.11733075 181.80946302 -0.11068493 C189.13537299 -0.10719865 196.46117096 -0.10938582 203.7870636 -0.12693596 C210.67529105 -0.14323405 217.56323624 -0.13843832 224.45145607 -0.11963081 C226.97533427 -0.11594791 229.49923311 -0.1190446 232.02309227 -0.1295166 C235.47624423 -0.14274771 238.92847872 -0.13115897 242.3815918 -0.11352539 C243.37314852 -0.1231304 244.36470525 -0.1327354 245.38630915 -0.14263147 C256.01322349 -0.0314679 264.73066729 3.39292874 272.6907959 10.38768005 C273.29665527 10.88912537 273.90251465 11.39057068 274.5267334 11.9072113 C280.62671711 17.38121415 285.12530239 25.3053054 286.6907959 33.38768005 C286.78525914 35.63789767 286.82170631 37.89074821 286.82501698 40.14294529 C286.82736921 40.8246797 286.82972144 41.50641411 286.83214495 42.20880714 C286.83882673 44.5039261 286.83837697 46.79898834 286.83796692 49.09411621 C286.84126606 50.75202424 286.84499173 52.40993146 286.8491084 54.06783766 C286.85913089 58.63239897 286.8628456 63.19694713 286.86549771 67.76151788 C286.86940004 72.68127335 286.87897845 77.60101839 286.88771057 82.52076721 C286.90747732 94.40653692 286.9175416 106.29230749 286.92643836 118.17808953 C286.93082104 123.77479826 286.93618792 129.37150605 286.94142723 134.96821404 C286.95843995 153.57223979 286.97293414 172.17626494 286.98017597 190.78029728 C286.98208588 195.60865339 286.98400621 200.4370095 286.98596191 205.2653656 C286.98644565 206.46543593 286.98692939 207.66550627 286.98742779 208.90194236 C286.99572812 228.34236463 287.0210649 247.78272536 287.05354259 267.22312076 C287.08661215 287.18045075 287.10462465 307.13774948 287.10782021 327.09510702 C287.10998543 338.30109467 287.1187359 349.50699261 287.14428139 360.71295357 C287.16598696 370.25654677 287.17403948 379.80002846 287.16431461 389.34364355 C287.15976948 394.21183685 287.16166859 399.07980006 287.18107605 403.94796181 C287.19870523 408.4086451 287.19771196 412.8689304 287.18217876 417.32961791 C287.17980232 418.93937869 287.18412813 420.54916702 287.19600741 422.15888572 C287.29603145 436.61347994 284.50024654 447.43322385 274.6907959 458.38768005 C256.79879683 475.09329209 223.28884985 480.15804884 200.24949932 487.91767693 C192.37984486 490.5687194 184.51700401 493.2383088 176.66192693 495.93224514 C171.08762268 497.84212043 165.50600834 499.72955189 159.91880542 501.6013509 C156.60398037 502.71256449 153.29297339 503.83283393 149.9897213 504.97803879 C114.86125581 517.13622894 114.86125581 517.13622894 98.10876465 509.70799255 C86.79520172 503.53031199 78.10446802 495.03571652 74.09289551 482.52268982 C72.33769308 475.47701403 72.46594294 468.54915748 72.5657959 461.32518005 C72.57481934 460.07801208 72.58384277 458.83084412 72.59313965 457.54588318 C72.61653381 454.49294501 72.64931416 451.440417 72.6907959 448.38768005 C71.15556023 448.40100372 71.15556023 448.40100372 69.58930969 448.41459656 C59.89548301 448.49604477 50.20172668 448.55581823 40.50763416 448.59492874 C35.52500342 448.61571254 30.54265118 448.64385992 25.56018066 448.68943787 C20.74258921 448.73322662 15.9252639 448.75688621 11.10748863 448.76718903 C9.27886459 448.77452158 7.45025341 448.7888386 5.62174416 448.81060028 C-12.66557261 449.01938481 -26.58936161 445.5643093 -40.4967041 432.95018005 C-44.47096471 428.79844051 -47.22249148 424.47091974 -49.8092041 419.38768005 C-50.13557861 418.74774109 -50.46195313 418.10780212 -50.79821777 417.44847107 C-55.07718914 408.41787114 -55.62457146 399.10862339 -55.6451416 389.24705505 C-55.6517984 388.12124023 -55.6584552 386.99542542 -55.66531372 385.835495 C-55.67537854 383.47237265 -55.68013267 381.10922224 -55.67980957 378.74607849 C-55.68420864 375.13395432 -55.72066598 371.52302825 -55.75842285 367.91111755 C-55.76428713 365.6064342 -55.76825912 363.3017451 -55.7701416 360.99705505 C-55.78451263 359.92195679 -55.79888367 358.84685852 -55.81369019 357.73918152 C-55.77650576 351.64568209 -55.44766665 347.98763593 -51.3092041 343.38768005 C-47.60745671 340.91984846 -44.60426935 340.70695273 -40.3092041 341.38768005 C-34.8092041 344.38768005 -34.8092041 344.38768005 -33.3092041 347.38768005 C-33.20139758 348.84048292 -33.15299796 350.29792975 -33.13562012 351.75462341 C-33.12213028 352.65994308 -33.10864044 353.56526276 -33.09474182 354.49801636 C-33.08430344 355.48125381 -33.07386505 356.46449127 -33.06311035 357.4775238 C-33.03013835 359.56281393 -32.99692734 361.64810029 -32.96350098 363.73338318 C-32.91633786 367.0179401 -32.87197757 370.30248562 -32.83239746 373.58714294 C-32.79228855 376.75910925 -32.74080601 379.93074494 -32.68811035 383.1025238 C-32.6796962 384.06754318 -32.67128204 385.03256256 -32.66261292 386.02682495 C-32.45669566 397.57968643 -31.17882155 408.40770412 -23.0592041 417.13768005 C-16.09573383 423.69681979 -8.8576343 425.51968381 0.48864746 425.59300232 C1.26951721 425.60290192 2.05038696 425.61280151 2.85491943 425.6230011 C5.43038931 425.65453379 8.00587761 425.67934091 10.5814209 425.7040863 C12.36932855 425.72466294 14.15723141 425.7456596 15.94512939 425.76705933 C20.64685179 425.82220668 25.34861756 425.87164828 30.05041504 425.91990662 C34.84985201 425.97017524 39.64922613 426.02583331 44.4486084 426.08103943 C53.86261719 426.18853126 63.27668059 426.28999613 72.6907959 426.38768005 C72.68965674 425.6601112 72.68851758 424.93254234 72.6873439 424.18292594 C72.62018297 381.04376216 72.56872272 337.90460408 72.53759991 294.76539849 C72.53384787 289.58350267 72.5299649 284.40160696 72.52600098 279.2197113 C72.52521405 278.18810632 72.52442711 277.15650133 72.52361634 276.09363559 C72.51056894 259.39868805 72.48691876 242.70377157 72.45933751 226.00884244 C72.43126479 208.87327839 72.41461569 191.73773058 72.40853041 174.60214448 C72.40441785 164.0319431 72.39143713 153.46182948 72.3670465 142.89165512 C72.35116628 135.63940997 72.34640072 128.38721008 72.35029177 121.13494882 C72.35220975 116.9532518 72.34930748 112.77170796 72.33317947 108.5900383 C72.31849795 104.75525309 72.31789656 100.92072297 72.32809921 97.08592561 C72.32995159 95.05478593 72.31708708 93.0236489 72.30355197 90.99255347 C72.3715323 77.00363481 75.16196032 65.57301892 84.79626465 55.09861755 C93.74871701 46.63736169 104.9464289 43.0635825 116.4486084 39.3056488 C117.84701068 38.84263099 119.2451902 38.37893991 120.64315796 37.91461182 C124.28720423 36.70623184 127.93416306 35.50689828 131.58184814 34.30955505 C135.31791674 33.08138158 139.05109791 31.84449498 142.7845459 30.60838318 C150.08386284 28.19304365 157.38628529 25.78727321 164.6907959 23.38768005 C142.43752936 23.29414452 120.18429535 23.22365565 97.93087196 23.18043137 C87.59768722 23.1598261 77.26462478 23.13174441 66.93151855 23.08592224 C57.92279456 23.04599217 48.91415917 23.02023245 39.90534914 23.01132607 C35.13738621 23.00612178 30.36967672 22.99393227 25.6017952 22.96475983 C21.10874327 22.93749317 16.6160478 22.92925769 12.12292099 22.93524933 C10.47906809 22.93415411 8.83520255 22.92626741 7.19142151 22.91085815 C-4.91173065 22.80302039 -14.49345342 23.96336137 -23.6217041 32.5947113 C-32.42599472 41.94927009 -32.43702387 53.16887311 -32.4498291 65.2743988 C-32.46813851 67.36750881 -32.48770705 69.46060811 -32.50842285 71.55369568 C-32.5374861 74.82577463 -32.55920736 78.09715258 -32.55969238 81.36936951 C-32.56302114 84.54666601 -32.59750683 87.7223774 -32.6373291 90.8993988 C-32.6302594 91.87656357 -32.6231897 92.85372833 -32.61590576 93.86050415 C-32.7000688 98.55063118 -32.76128256 100.68650652 -35.72619629 104.48069763 C-39.84434302 107.52104207 -43.24189235 108.09768727 -48.3092041 107.38768005 C-51.87989371 105.21421681 -53.74903924 103.22336463 -55.3092041 99.38768005 C-55.56990051 97.01329041 -55.56990051 97.01329041 -55.5838623 94.35057068 C-55.59816032 92.84750366 -55.59816032 92.84750366 -55.61274719 91.31407166 C-55.61183578 90.23492493 -55.61092438 89.1557782 -55.60998535 88.04393005 C-55.61427048 86.92385559 -55.6185556 85.80378113 -55.62297058 84.64976501 C-55.62871514 82.27595189 -55.62921323 79.90212117 -55.62487793 77.52830505 C-55.62174015 73.92903242 -55.64509902 70.33059974 -55.67053223 66.73143005 C-55.67280768 64.41893108 -55.67350758 62.10642992 -55.67248535 59.79393005 C-55.6816951 58.73097717 -55.69090485 57.66802429 -55.70039368 56.57286072 C-55.60714456 41.19406809 -50.80733136 26.70632421 -40.1217041 15.45018005 C-28.37244299 4.5367077 -15.88932085 -0.0963087 0 0 Z M226.64709473 26.36326599 C225.35540047 26.79139864 224.06332036 27.21836864 222.77088928 27.64427185 C219.28343741 28.7974018 215.80181838 29.9672646 212.32119966 31.14083385 C208.66739235 32.37014054 205.00893369 33.58545858 201.35112 34.80278015 C195.21256555 36.84808394 189.07767714 38.90408654 182.94494629 40.96678162 C175.86535846 43.34782307 168.78059663 45.71290484 161.6927641 48.06928039 C154.85820929 50.34176178 148.02711144 52.6244607 141.19763756 54.91216278 C138.29811459 55.88330187 135.39749888 56.85106852 132.4959507 57.81613922 C129.07773711 58.95365374 125.66267295 60.10017397 122.2497921 61.25358582 C120.4065914 61.8742195 118.56045427 62.48611111 116.7142334 63.09770203 C107.72432045 66.1519319 101.73104378 69.0083413 96.5032959 77.26268005 C94.56451165 82.33334654 94.56543203 87.83846139 94.56216145 93.20532799 C94.56040841 93.85735565 94.55865537 94.50938331 94.55684921 95.18116939 C94.55221233 97.35715475 94.55464871 99.5330726 94.55708313 101.70906067 C94.555214 103.28848691 94.55291289 104.8679127 94.55021781 106.44733775 C94.54410616 110.78095484 94.54423265 115.11455263 94.54541218 119.44817305 C94.54561635 124.12447882 94.54009597 128.80077841 94.53535461 133.4770813 C94.52705123 142.63596093 94.52429992 151.79483413 94.52374224 160.95371722 C94.52326698 168.3981733 94.52121173 175.84262726 94.51804161 183.28708267 C94.50923628 204.39440912 94.5046221 225.50173048 94.50537208 246.60905878 C94.50541204 247.74675576 94.505452 248.88445273 94.50549316 250.05662537 C94.50553404 251.19571152 94.50557493 252.33479767 94.50561704 253.50840159 C94.50602359 271.97351806 94.4964515 290.43861414 94.4823548 308.90372472 C94.46799392 327.8644693 94.46108444 346.82520395 94.46194857 365.78595412 C94.46228062 376.43065414 94.45953017 387.0753328 94.44877052 397.72002792 C94.43966938 406.78195813 94.43748714 415.84385728 94.44427995 424.90579008 C94.44754695 429.52863373 94.44759527 434.15141776 94.4389267 438.77425575 C94.43106893 443.00825155 94.43248574 447.24214037 94.44121083 451.47613354 C94.44274739 453.00568448 94.44092376 454.53524337 94.43535075 456.06478493 C94.21795194 471.35829687 94.21795194 471.35829687 100.9329834 484.6572113 C105.04466821 488.70493657 109.35896236 490.58966086 115.13508606 490.72891235 C121.75440027 490.61242303 127.61283472 488.54189857 133.83215332 486.42796326 C135.12233454 486.00133512 136.41294118 485.57599169 137.70393372 485.15182495 C141.18362399 484.00419649 144.65680402 482.83796614 148.12885451 481.66745782 C151.77660845 480.44055578 155.42942413 479.22889369 159.08149719 478.0149231 C165.21028227 475.97500159 171.33489607 473.9229338 177.45715332 471.86351013 C184.52051238 469.48768108 191.59009327 467.13117956 198.6633274 464.78492862 C205.48862421 462.52042907 212.30931123 460.24234124 219.12801552 457.95807457 C222.02071667 456.98927683 224.91492516 456.02519582 227.8104763 455.06495094 C231.22306298 453.9325539 234.6314308 452.78824805 238.0369854 451.63488197 C239.8733557 451.0160272 241.71364411 450.40883661 243.55404663 449.80207825 C251.55848703 447.07252882 258.03704065 444.83881403 262.33999825 437.21464443 C265.71916654 430.16677965 265.38163635 422.94922765 265.31898499 415.31916809 C265.32403583 413.69518458 265.33126881 412.07120665 265.34048313 410.44724143 C265.35935551 406.00427233 265.34720017 401.5618561 265.32976019 397.11890125 C265.31636258 392.3199407 265.33183177 387.52105977 265.34358215 382.72210693 C265.36194439 373.32928467 265.35345623 363.93667068 265.33549393 354.54385494 C265.32146001 346.91018406 265.31757684 339.27656966 265.3209362 331.64288712 C265.32165237 330.01230869 265.32165237 330.01230869 265.322383 328.34878928 C265.32340934 326.14038946 265.3244647 323.93198965 265.32554876 321.72358985 C265.33411275 302.20402619 265.31744967 282.68456301 265.28771973 263.1650238 C265.25887515 244.22650432 265.25180295 225.28812954 265.26721191 206.34959412 C265.28397307 185.72091913 265.28800976 165.09231282 265.27050155 144.46363604 C265.26865718 142.26403786 265.26682245 140.06443966 265.26499748 137.86484146 C265.26408539 136.7826217 265.2631733 135.70040194 265.26223357 134.58538764 C265.25662826 126.96020183 265.25993524 119.33504956 265.26654243 111.70986557 C265.27427388 102.41846372 265.2675295 93.1272043 265.24236739 83.83583115 C265.22986898 79.09557572 265.2237301 74.35554209 265.23490906 69.61527824 C265.24495096 65.27523474 265.23649293 60.93563352 265.21332788 56.59564383 C265.20816939 55.02650464 265.20972902 53.4573258 265.21872253 51.8882039 C265.26660267 42.77570882 265.17124649 35.57979058 258.94470215 28.36424255 C248.17375399 19.7574341 239.00514101 22.164705 226.64709473 26.36326599 Z " fill="#000000" transform="translate(225.3092041015625,-0.3876800537109375)"/>
<path d="M0 0 C2.83094621 1.37944288 4.61220265 2.86622365 7 5 C7 5.66 7 6.32 7 7 C7.66 7 8.32 7 9 7 C9 7.66 9 8.32 9 9 C9.66 9 10.32 9 11 9 C11 9.66 11 10.32 11 11 C11.66 11 12.32 11 13 11 C13 11.66 13 12.32 13 13 C13.66 13 14.32 13 15 13 C15 13.66 15 14.32 15 15 C15.66 15 16.32 15 17 15 C17 15.66 17 16.32 17 17 C17.66 17 18.32 17 19 17 C19 17.66 19 18.32 19 19 C19.59881705 19.27405513 20.19763411 19.54811026 20.81459713 19.83047009 C22.92139979 20.95793668 24.28677653 22.03545274 25.96644592 23.71247864 C26.52294327 24.26333633 27.07944061 24.81419403 27.65280151 25.38174438 C28.54988327 26.28489883 28.54988327 26.28489883 29.46508789 27.20629883 C30.10458878 27.84229507 30.74408966 28.47829132 31.40296936 29.13356018 C33.51458955 31.23638142 35.61881366 33.34643071 37.72265625 35.45703125 C39.18919617 36.92222383 40.65603287 38.38711942 42.12315369 39.85173035 C45.19710295 42.92273069 48.26740502 45.99732009 51.33520508 49.07446289 C55.26489747 53.01553951 59.20348583 56.94758361 63.14486027 60.87697315 C66.17594131 63.90082083 69.20223469 66.9294239 72.22710991 69.95947838 C73.6772937 71.41099509 75.12896124 72.861031 76.58213997 74.30954933 C78.61441258 76.33673372 80.64014801 78.37023553 82.66430664 80.40551758 C83.26438538 81.00154785 83.86446411 81.59757812 84.48272705 82.21166992 C88.63204427 86.40325126 91.67438395 89.79304677 92.5625 95.8125 C92.21496815 104.11788711 83.47484363 110.81459989 77.96264648 116.29614258 C76.78832062 117.4757254 76.78832062 117.4757254 75.590271 118.67913818 C73.02219185 121.25596187 70.44693562 123.82546909 67.87109375 126.39453125 C66.07531494 128.19165839 64.27983302 129.98908224 62.4846344 131.78678894 C58.73135987 135.54300452 54.97460777 139.29569321 51.21508789 143.0456543 C46.87599659 147.37384009 42.54418889 151.70921553 38.21604675 156.04834825 C34.03774478 160.23683246 29.85381978 164.41966456 25.66749763 168.6001339 C23.89221461 170.37408348 22.11841407 172.14951797 20.34612846 173.92646217 C17.87154564 176.40612326 15.39064363 178.87928429 12.90795898 181.35083008 C12.17795181 182.08488571 11.44794464 182.81894135 10.69581604 183.57524109 C1.77054686 192.4264603 1.77054686 192.4264603 -4.5 192.4375 C-8.79156546 192.30160043 -11.00202711 191.18534619 -14 188 C-16.00891835 183.98216331 -15.99029017 180.33813727 -15 176 C-12.98893738 173.29754639 -12.98893738 173.29754639 -10.28588867 170.48730469 C-9.55077324 169.71514177 -9.55077324 169.71514177 -8.800807 168.92737961 C-7.21440091 167.27082248 -5.60977887 165.63383285 -4 164 C-3.47931065 163.46740067 -2.95862129 162.93480133 -2.42215347 162.38606262 C1.46151484 158.41800413 5.38931834 154.49527916 9.32421875 150.578125 C10.5642518 149.33996316 11.80405972 148.1015758 13.0436554 146.86297607 C16.26513758 143.64526382 19.48961366 140.43056899 22.71478271 137.21655273 C26.02200128 133.9196689 29.32629664 130.61985796 32.63085938 127.3203125 C39.08442642 120.87738499 45.54116892 114.43765018 52 108 C51.03662909 107.99853344 50.07325817 107.99706688 49.0806942 107.99555588 C25.64517708 107.95896904 2.20980297 107.89953015 -21.22559547 107.81609726 C-32.5587653 107.77627943 -43.89186541 107.74390086 -55.22509766 107.72900391 C-65.10256942 107.71600164 -74.97988797 107.68907336 -84.85727346 107.64538693 C-90.08782297 107.62274014 -95.31818327 107.60709125 -100.54878616 107.60811615 C-105.47199398 107.60886086 -110.39478304 107.59098621 -115.31788254 107.55883217 C-117.12463217 107.5503135 -118.93142866 107.54859656 -120.7381897 107.55419731 C-123.20637175 107.56082925 -125.67321829 107.54293719 -128.14126587 107.51898193 C-128.8552871 107.52674235 -129.56930833 107.53450277 -130.30496657 107.54249835 C-135.29435684 107.45684391 -138.15442733 106.12955096 -142 103 C-143.85726616 99.28546768 -143.58501089 95.04420575 -143 91 C-140.80977082 88.17575712 -139.16982793 86.58491397 -136 85 C-133.53184296 84.8924481 -131.09114768 84.8451093 -128.62228394 84.84178162 C-127.4681589 84.83437465 -127.4681589 84.83437465 -126.2907182 84.82681805 C-123.69885996 84.8113951 -121.10702657 84.80306949 -118.51513672 84.79467773 C-116.66264627 84.78510298 -114.81015803 84.77509314 -112.95767212 84.76467896 C-107.91664306 84.73758022 -102.8756046 84.71659761 -97.83454275 84.69667697 C-92.57075874 84.674848 -87.30700391 84.64744423 -82.04324341 84.62062073 C-72.07018956 84.57065198 -62.09711956 84.52572869 -52.12403405 84.48259836 C-40.77231015 84.43326168 -29.42061551 84.37833034 -18.0689199 84.32291877 C5.28735945 84.20903453 28.64366685 84.10220956 52 84 C51.19011627 83.19233688 50.38023254 82.38467377 49.54580688 81.55253601 C41.92085275 73.9478368 34.29852771 66.34051122 26.67878151 58.73059368 C22.76113629 54.81817129 18.84256449 50.90668632 14.921875 46.99731445 C11.13959235 43.2258819 7.35974407 39.45202543 3.58158493 35.67646217 C2.13833775 34.2350654 0.69420943 32.79455035 -0.7508049 31.35492516 C-2.77158042 29.34138816 -4.78922554 27.3247642 -6.80615234 25.30737305 C-7.4067598 24.71036087 -8.00736725 24.11334869 -8.62617493 23.49824524 C-15.28846052 16.81929798 -15.28846052 16.81929798 -15.375 11.125 C-15.31060826 7.4493051 -15.10135249 6.1655424 -13.125 2.9375 C-9.14475216 -0.6915495 -5.20407885 -0.77976426 0 0 Z " fill="#000000" transform="translate(143,128)"/>
</svg>
