<?xml version="1.0" encoding="UTF-8"?>
<svg version="1.1" xmlns="http://www.w3.org/2000/svg" width="512" height="512">
<path d="M0 0 C4.1124463 2.09360902 6.2580016 3.76943247 8 8 C8.81853399 11.85362903 8.95771366 15.43431793 6.85546875 18.87109375 C4.97823215 20.99497458 2.99774816 22.98877631 1 25 C-7.5984935 34.28363243 -14.74746976 44.00059366 -21 55 C-21.95519531 56.67642578 -21.95519531 56.67642578 -22.9296875 58.38671875 C-30.61038241 72.80935697 -35.53309761 88.87632597 -38 105 C-38.13019531 105.81597656 -38.26039062 106.63195312 -38.39453125 107.47265625 C-43.02026802 143.43005004 -32.45327329 180.81290135 -10.96875 209.734375 C-9.0328391 212.20803893 -7.04284188 214.61405533 -5 217 C-4.29101562 217.83144531 -3.58203125 218.66289062 -2.8515625 219.51953125 C20.16960491 245.81212772 52.48192805 261.60359673 87 266 C92.12211981 266.23837252 97.24789921 266.24568992 102.375 266.25 C103.45213257 266.25101212 103.45213257 266.25101212 104.55102539 266.25204468 C142.13083326 266.19589118 177.80132288 251.10469596 204.46826172 224.57080078 C225.85429858 202.63937567 239.37457623 174.23176977 244 144 C244.19529297 142.77603516 244.19529297 142.77603516 244.39453125 141.52734375 C248.04579282 113.14487048 242.03047708 84.2595353 229 59 C228.50628906 58.01644531 228.01257813 57.03289062 227.50390625 56.01953125 C221.74878494 44.96158814 213.97979521 35.60848023 205.83203125 26.26171875 C205.361604 25.71757324 204.89117676 25.17342773 204.40649414 24.61279297 C203.46496243 23.53316123 202.51079478 22.46442656 201.54467773 21.40673828 C198.93153921 18.46875825 197.31414 16.5055717 197.4375 12.5 C197.69856316 8.07684425 199.044456 5.36603622 202 2 C206.22859051 -0.53715431 210.18783724 -1.01979608 215 0 C218.11821783 1.90425516 220.47630259 4.37867406 223 7 C224.04607422 7.96099609 224.04607422 7.96099609 225.11328125 8.94140625 C254.15702712 36.12800318 269.36109371 78.97354391 271 118 C271.061875 119.34964844 271.061875 119.34964844 271.125 120.7265625 C271.79793224 150.58793076 264.38750921 179.91631593 250 206 C249.66274902 206.62181152 249.32549805 207.24362305 248.97802734 207.88427734 C228.4696691 245.30935444 192.23284682 273.09830225 151.703125 285.68359375 C108.53393197 298.2700315 61.58294711 293.23522656 21.99853516 272.04003906 C8.86123125 264.74365284 -2.86444118 255.90396786 -13.57714844 245.38769531 C-14.8982573 244.09922881 -16.24883671 242.84116954 -17.6015625 241.5859375 C-29.06412632 230.70559914 -37.75828033 217.71027513 -45.06103516 203.77539062 C-45.88073559 202.22550463 -46.73990182 200.69662064 -47.60546875 199.171875 C-58.69529213 178.83557689 -64.28713276 154.05970566 -65 131 C-65.03996094 130.0203125 -65.07992187 129.040625 -65.12109375 128.03125 C-65.76176043 98.18371997 -58.27752477 69.1116048 -44 43 C-43.13568359 41.39898437 -43.13568359 41.39898437 -42.25390625 39.765625 C-34.41027929 25.78114461 -18.46178286 -2.26505907 0 0 Z " fill="#212121" transform="translate(153,134)"/>
<path d="M0 0 C3.436392 2.7491136 5.04012183 4.49028491 5.56502342 8.97688198 C5.56672004 10.90843687 5.56672004 10.90843687 5.56845093 12.87901306 C5.5731309 13.59760815 5.57781087 14.31620323 5.58263266 15.05657393 C5.5946004 17.46490555 5.58511874 19.87266999 5.57568359 22.28100586 C5.57974855 24.00745476 5.58509 25.73390105 5.59161377 27.46034241 C5.60530325 32.15043908 5.59998172 36.84033801 5.59047651 41.53043818 C5.58288715 46.43684727 5.58992363 51.3432393 5.59463501 56.24964905 C5.60009519 64.49060102 5.59289461 72.73147237 5.57861328 80.97241211 C5.56229168 90.50071838 5.56757066 100.02883203 5.5840925 109.55713362 C5.59770635 117.73558544 5.59962735 125.91397927 5.59177649 134.09243876 C5.58709873 138.97803407 5.58647786 143.86353884 5.59638596 148.74912834 C5.60505167 153.34317095 5.59904092 157.93696528 5.58170319 162.53098106 C5.577736 164.21722756 5.57887636 165.90349494 5.58549118 167.58973312 C5.5936879 169.89143868 5.58340837 172.19234845 5.56845093 174.4940033 C5.56731985 175.78208358 5.56618877 177.07016386 5.56502342 178.39727688 C5.15771056 182.01455511 4.37061814 183.87020909 2.1875 186.75 C-2.13472975 189.83730697 -5.59514986 190.16721191 -10.69140625 189.40234375 C-14.00609096 188.38291033 -15.72067732 186.43014781 -17.8125 183.75 C-19.28770708 180.79958584 -18.95214927 178.16285568 -18.96640015 174.8682251 C-18.9707824 174.15204443 -18.97516465 173.43586376 -18.9796797 172.69798064 C-18.99308848 170.28595585 -18.99925121 167.8739676 -19.00537109 165.46191406 C-19.01327044 163.73738438 -19.02153929 162.01285635 -19.03015137 160.28833008 C-19.05639139 154.61411116 -19.07168122 148.93988478 -19.0859375 143.265625 C-19.09129641 141.31369776 -19.09667392 139.36177058 -19.10206985 137.40984344 C-19.1237017 129.29122177 -19.14243894 121.1726021 -19.15369225 113.05395889 C-19.16993436 101.41195696 -19.20311501 89.77028864 -19.26009309 78.12841249 C-19.29877381 69.94660504 -19.31832274 61.7648869 -19.32361281 53.58299041 C-19.32726891 48.69441952 -19.33931746 43.80620429 -19.37171555 38.91773224 C-19.40176321 34.31789452 -19.40811988 29.71862827 -19.39633179 25.11871338 C-19.39611077 23.43125022 -19.40443894 21.7437608 -19.42198563 20.05638885 C-19.44466067 17.75014096 -19.43639251 15.44596824 -19.42050171 13.13970947 C-19.42381186 11.84995335 -19.427122 10.56019722 -19.43053246 9.23135757 C-18.61137425 4.61706492 -17.13459374 3.01083438 -13.8125 -0.25 C-8.98799824 -1.85816725 -4.6231662 -2.05474053 0 0 Z " fill="#222222" transform="translate(262.8125,87.25)"/>
</svg>
