<?xml version="1.0" encoding="UTF-8"?>
<svg version="1.1" xmlns="http://www.w3.org/2000/svg" width="512" height="512">
<path d="M0 0 C1.31766357 -0.00990463 2.63532715 -0.01980927 3.99291992 -0.03001404 C5.45691011 -0.02577556 6.92089939 -0.02121766 8.3848877 -0.01637268 C9.92411801 -0.02207412 11.46334409 -0.02903749 13.00256348 -0.03717041 C17.18900198 -0.05515302 21.37523144 -0.05392259 25.56169701 -0.04822803 C29.06016822 -0.04514009 32.55859906 -0.051225 36.05706453 -0.05726677 C44.3187167 -0.07133034 52.58026554 -0.06973866 60.84191895 -0.05836487 C69.34823958 -0.04691249 77.85424386 -0.06090643 86.36052275 -0.08776134 C93.67196983 -0.10997499 100.98331806 -0.11654209 108.29479647 -0.11068493 C112.65749961 -0.10732394 117.02000056 -0.10967166 121.38267517 -0.12693596 C125.49335522 -0.14249087 129.60357113 -0.13835573 133.7142334 -0.11963081 C135.21574316 -0.11596681 136.71728793 -0.11898891 138.21876526 -0.1295166 C151.46131547 -0.21520898 161.90869841 2.02630947 171.71496582 11.38768005 C181.27373782 21.40073032 183.31733587 31.9679609 183.22290039 45.46824646 C183.22751808 46.86408956 183.23387679 48.25992779 183.24180937 49.655756 C183.25840697 53.46353279 183.25030042 57.27090523 183.23786449 61.0786829 C183.22877679 65.19601147 183.24280209 69.31327277 183.25378418 73.43058777 C183.27153445 81.48539134 183.26774503 89.5400455 183.25613362 97.59485483 C183.24708579 104.14342375 183.24588112 110.69195091 183.25022888 117.24052429 C183.25084181 118.17393005 183.25145475 119.10733581 183.25208625 120.06902659 C183.2533652 121.96545268 183.25466206 123.86187876 183.25597662 125.75830483 C183.26737219 143.52489079 183.25428478 161.29139408 183.23277515 179.05796647 C183.2149051 194.28965718 183.2180095 209.52122592 183.2364502 224.75291443 C183.257875 242.45761051 183.26627364 260.16223421 183.25400114 277.86694145 C183.252727 279.75623956 183.25146951 281.64553768 183.25022888 283.53483582 C183.24930323 284.92905067 183.24930323 284.92905067 183.24835888 286.35143149 C183.24491081 292.88918719 183.2507226 299.42689682 183.26014709 305.96464539 C183.27138635 313.9362219 183.2682866 321.90764094 183.24702412 329.8791995 C183.23653956 333.94341157 183.23234731 338.00736145 183.24562073 342.07157135 C183.25760466 345.79740905 183.25088443 349.52274336 183.22971052 353.24853587 C183.22317796 355.22320993 183.23612671 357.19791937 183.24993944 359.17255592 C183.14484086 371.18777752 180.09177526 380.61276482 171.71496582 389.38768005 C160.17601427 400.4031253 148.02279418 400.96380182 132.92199707 400.77830505 C131.12168511 400.77083059 129.32136493 400.76514336 127.52104187 400.76115417 C122.81750421 400.74599263 118.11447262 400.7067944 113.41113281 400.66233826 C108.59776654 400.62117922 103.78431729 400.6030994 98.9708252 400.58299255 C89.55198492 400.54028945 80.1335177 400.47215524 70.71496582 400.38768005 C70.73309326 401.54525818 70.7512207 402.7028363 70.76989746 403.89549255 C70.78456075 405.43455109 70.7987787 406.97361392 70.81262207 408.51268005 C70.82571411 409.27322693 70.83880615 410.0337738 70.85229492 410.81736755 C70.92446456 421.53311601 67.08798837 429.66425644 59.71496582 437.38768005 C47.36800361 449.17447763 34.00417516 448.97170742 17.89465332 448.90525818 C15.68430115 448.91068447 13.4739526 448.91780997 11.26361084 448.92649841 C5.28428462 448.94467418 -0.69476433 448.93768786 -6.67409515 448.92498207 C-12.94431787 448.91482465 -19.21451752 448.92425536 -25.48474121 448.93052673 C-36.6861232 448.93826013 -47.88740384 448.92586305 -59.08876157 448.90548939 C-69.22651359 448.88762053 -79.36408234 448.89072532 -89.50183105 448.90916443 C-101.29990593 448.93061366 -113.09789164 448.93851564 -124.89598656 448.92671537 C-131.13201672 448.92049308 -137.3679209 448.91961008 -143.60394287 448.93286133 C-149.46787269 448.94445247 -155.33145788 448.93633418 -161.19535065 448.9132843 C-163.34188516 448.90801468 -165.4884489 448.90948089 -167.63497162 448.91833496 C-182.7297696 448.9748378 -194.8152902 448.33705757 -206.28503418 437.38768005 C-215.64902004 427.57867308 -217.89039189 417.16220641 -217.79296875 403.91453552 C-217.79920871 402.59799421 -217.80544868 401.2814529 -217.81187773 399.9250164 C-217.82846471 396.29965788 -217.82037378 392.67472442 -217.80793285 389.04936504 C-217.7988407 385.12835604 -217.81287263 381.20741749 -217.82385254 377.28642273 C-217.84159812 369.61663222 -217.8378155 361.94699868 -217.82620198 354.27720213 C-217.81715229 348.04137101 -217.81595028 341.80558374 -217.82029724 335.56974792 C-217.82091017 334.68074795 -217.82152311 333.79174797 -217.82215461 332.8758086 C-217.82343357 331.0695745 -217.82473042 329.26334042 -217.82604498 327.45710635 C-217.83743917 310.53748076 -217.82435531 293.61794199 -217.80284351 276.69833064 C-217.78497358 262.19434636 -217.78807802 247.69049015 -217.80651855 233.18650818 C-217.8279458 216.32561448 -217.83634064 199.46479679 -217.8240695 182.60389137 C-217.82279536 180.80446499 -217.82153788 179.00503859 -217.82029724 177.20561218 C-217.81937159 175.87773597 -217.81937159 175.87773597 -217.81842723 174.52303398 C-217.81497989 168.29786401 -217.82078938 162.07274243 -217.83021545 155.84757996 C-217.84145743 148.25661766 -217.8383493 140.66582072 -217.81709248 133.07487726 C-217.80661154 129.20508637 -217.80240937 125.33557075 -217.81568909 121.46578217 C-217.82988991 117.26389211 -217.81288418 113.0626914 -217.79296875 108.86082458 C-217.80189164 107.64748381 -217.81081452 106.43414303 -217.8200078 105.18403435 C-217.71154617 93.36386491 -214.51200318 84.00563372 -206.28503418 75.38768005 C-195.22686036 64.83120032 -183.36869642 63.80054319 -168.78820801 63.93357849 C-167.04276557 63.93470868 -165.29732123 63.93406977 -163.55187988 63.93180847 C-158.84383436 63.93066708 -154.13620162 63.95408273 -149.4282515 63.9821043 C-144.4968823 64.00721432 -139.56550225 64.0094675 -134.63407898 64.01420593 C-125.30933047 64.0266076 -115.98477094 64.05939101 -106.66010541 64.09960389 C-96.03855556 64.14440927 -85.41699639 64.16633065 -74.79537547 64.18638563 C-52.95848982 64.22812626 -31.12177394 64.29842342 -9.28503418 64.38768005 C-9.29502693 63.25135384 -9.29502693 63.25135384 -9.30522156 62.09207153 C-9.3653125 54.95569563 -9.41099809 47.81944225 -9.4404707 40.68287945 C-9.45613223 37.0138133 -9.47737893 33.34495605 -9.51135254 29.67601013 C-9.54392932 26.13579058 -9.56188352 22.59577206 -9.56966591 19.0554142 C-9.57791342 17.0462035 -9.60133555 15.03707378 -9.62492371 13.02798462 C-9.6252636 11.1964257 -9.6252636 11.1964257 -9.62561035 9.3278656 C-9.6356031 7.71237068 -9.6356031 7.71237068 -9.64579773 6.0642395 C-9.28503418 3.38768005 -9.28503418 3.38768005 -8.15656281 1.54064846 C-5.40772699 -0.15279123 -3.21617383 0.0068069 0 0 Z M19.71496582 16.38768005 C23.12338717 20.43407821 26.57042 24.36711006 30.32751465 28.09788513 C31.61333183 29.37874748 31.61333183 29.37874748 32.92512512 30.68548584 C34.28482674 32.03273994 34.28482674 32.03273994 35.67199707 33.4072113 C36.62539068 34.35619069 37.57848505 35.30547078 38.53129578 36.2550354 C41.52719113 39.23960006 44.52704525 42.22016561 47.52746582 45.20018005 C51.02409856 48.67318314 54.51907447 52.14782148 58.00989342 55.62666893 C59.40440341 57.01469939 60.80195305 58.39967384 62.19953918 59.78460693 C63.04098984 60.62275436 63.88244049 61.46090179 64.74938965 62.32444763 C65.49296219 63.06278336 66.23653473 63.80111908 67.00263977 64.56182861 C70.07174478 67.83441201 69.89270223 70.31017767 70.03137207 74.70799255 C70.0732666 75.96482849 70.11516113 77.22166443 70.1583252 78.5165863 C70.1976416 79.83529724 70.23695801 81.15400818 70.27746582 82.51268005 C70.32066094 83.85253756 70.36427555 85.19238162 70.4083252 86.5322113 C70.51467563 89.8172582 70.6167039 93.10238286 70.71496582 96.38768005 C71.38624512 96.39132568 72.05752441 96.39497131 72.74914551 96.39872742 C79.75779409 96.44065013 86.76579379 96.51006488 93.77404785 96.59519958 C96.38693745 96.62336479 98.99991155 96.64460134 101.61291504 96.65867615 C105.37653728 96.68016619 109.1391483 96.72685149 112.90246582 96.77830505 C114.0642334 96.77953369 115.22600098 96.78076233 116.42297363 96.7820282 C124.16989199 96.92083188 129.70315512 97.92575074 135.73840332 103.1337738 C136.18441895 103.69193787 136.63043457 104.25010193 137.08996582 104.82518005 C137.78219238 105.65855896 137.78219238 105.65855896 138.48840332 106.5087738 C141.54400698 111.18949152 142.01260265 115.50709789 142.00549316 120.98851013 C142.01221039 121.73716843 142.01892761 122.48582672 142.02584839 123.25717163 C142.0447935 125.72391968 142.04875094 128.19039509 142.05090332 130.6572113 C142.05733422 132.37968048 142.0640628 134.10214857 142.07107544 135.82461548 C142.08303987 139.43330923 142.08675718 143.04190732 142.08557129 146.65061951 C142.08536827 151.2606271 142.11265604 155.87001704 142.14711571 160.47987843 C142.16942347 164.03766665 142.17340763 167.59530721 142.17235184 171.15315819 C142.17470251 172.85192173 142.18349585 174.55068966 142.19901657 176.24938393 C142.34617606 194.02086371 142.34617606 194.02086371 135.96887207 201.41111755 C135.41070801 201.85713318 134.85254395 202.3031488 134.27746582 202.76268005 C133.44408691 203.45490662 133.44408691 203.45490662 132.59387207 204.16111755 C128.53552955 206.81043055 124.90738314 207.64019844 120.09851074 207.70652771 C118.44736519 207.73633224 118.44736519 207.73633224 116.76286316 207.76673889 C115.58561172 207.7782901 114.40836029 207.78984131 113.19543457 207.80174255 C111.37487297 207.83079178 111.37487297 207.83079178 109.51753235 207.86042786 C105.64591471 207.92014577 101.77426721 207.9665786 97.90246582 208.01268005 C95.27549982 208.05086693 92.64854625 208.08991908 90.02160645 208.12986755 C83.58612468 208.22746728 77.15077326 208.30709993 70.71496582 208.38768005 C70.71496582 218.94768005 70.71496582 229.50768005 70.71496582 240.38768005 C74.59246582 240.4134613 78.46996582 240.43924255 82.46496582 240.46580505 C86.23473259 240.50425542 90.00436397 240.54940631 93.77404785 240.59519958 C96.38693745 240.62336479 98.99991155 240.64460134 101.61291504 240.65867615 C105.37653728 240.68016619 109.1391483 240.72685149 112.90246582 240.77830505 C114.0642334 240.77953369 115.22600098 240.78076233 116.42297363 240.7820282 C124.16989199 240.92083188 129.70315512 241.92575074 135.73840332 247.1337738 C136.18441895 247.69193787 136.63043457 248.25010193 137.08996582 248.82518005 C137.5514502 249.38076599 138.01293457 249.93635193 138.48840332 250.5087738 C141.54400698 255.18949152 142.01260265 259.50709789 142.00549316 264.98851013 C142.01221039 265.73716843 142.01892761 266.48582672 142.02584839 267.25717163 C142.0447935 269.72391968 142.04875094 272.19039509 142.05090332 274.6572113 C142.05733422 276.37968048 142.0640628 278.10214857 142.07107544 279.82461548 C142.08303987 283.43330923 142.08675718 287.04190732 142.08557129 290.65061951 C142.08536827 295.2606271 142.11265604 299.87001704 142.14711571 304.47987843 C142.16942347 308.03766665 142.17340763 311.59530721 142.17235184 315.15315819 C142.17470251 316.85192173 142.18349585 318.55068966 142.19901657 320.24938393 C142.34617606 338.02086371 142.34617606 338.02086371 135.96887207 345.41111755 C135.41070801 345.85713318 134.85254395 346.3031488 134.27746582 346.76268005 C133.44408691 347.45490662 133.44408691 347.45490662 132.59387207 348.16111755 C128.53552955 350.81043055 124.90738314 351.64019844 120.09851074 351.70652771 C118.44736519 351.73633224 118.44736519 351.73633224 116.76286316 351.76673889 C115.58561172 351.7782901 114.40836029 351.78984131 113.19543457 351.80174255 C111.37487297 351.83079178 111.37487297 351.83079178 109.51753235 351.86042786 C105.64591471 351.92014577 101.77426721 351.9665786 97.90246582 352.01268005 C95.27549982 352.05086693 92.64854625 352.08991908 90.02160645 352.12986755 C83.58612468 352.22746728 77.15077326 352.30709993 70.71496582 352.38768005 C70.71496582 362.94768005 70.71496582 373.50768005 70.71496582 384.38768005 C83.29210536 384.44592012 83.29210536 384.44592012 95.8692627 384.4853363 C101.00431488 384.49725899 106.13929526 384.51131369 111.27429199 384.53855896 C115.41752468 384.56040278 119.56068028 384.57227286 123.70396614 384.57743454 C125.27908604 384.58110968 126.85420207 384.58828596 128.42928886 384.59914017 C144.0243318 385.01362767 144.0243318 385.01362767 157.71496582 378.38768005 C164.72850623 371.32368251 166.83633633 364.62717617 166.84360027 354.6769743 C166.84843694 352.99535042 166.84843694 352.99535042 166.85337132 351.27975434 C166.85182272 350.05826701 166.85027412 348.83677968 166.84867859 347.57827759 C166.85207692 345.62000777 166.85207692 345.62000777 166.85554391 343.62217695 C166.86165444 340.00459859 166.8615292 336.38704337 166.86034954 332.76946104 C166.86014534 328.86546878 166.86566608 324.96148392 166.8704071 321.05749512 C166.87871011 313.41113455 166.88146179 305.76478169 166.88201948 298.11841699 C166.88249481 291.90248391 166.88455037 285.68655338 166.88772011 279.47062111 C166.8965257 261.84365059 166.90113963 244.21668615 166.90038963 226.58971342 C166.90034968 225.63963176 166.90030972 224.68955011 166.90026855 223.7106781 C166.90020723 222.28381371 166.90020723 222.28381371 166.90014467 220.82812379 C166.89973822 205.41190923 166.90930777 189.9957191 166.92340692 174.57951161 C166.93777275 158.74667271 166.94467699 142.91384573 166.94381315 127.08100015 C166.94348125 118.19350771 166.94622513 109.30604087 166.9569912 100.41855431 C166.9660989 92.85161819 166.96826921 85.2847193 166.96148177 77.71778008 C166.95821795 73.85846454 166.95815491 69.99922039 166.96683502 66.13991165 C166.97615592 61.95256495 166.9699204 57.76538339 166.96220398 53.57803345 C166.96991932 51.7558407 166.96991932 51.7558407 166.97779053 49.89683598 C166.93883346 40.33370857 166.41715561 30.80684828 159.71496582 23.38768005 C150.47951543 16.18715941 141.89229689 16.23815945 130.62927246 16.27415466 C129.4285611 16.27400864 128.22784973 16.27386261 126.99075317 16.27371216 C123.71646143 16.27428731 120.44221304 16.27928469 117.16792989 16.28628612 C113.73931013 16.2925594 110.31068943 16.29312659 106.88206482 16.29431152 C100.39762619 16.29741315 93.91320452 16.30561073 87.42877334 16.31566101 C80.04302234 16.32685851 72.6572705 16.33234175 65.2715131 16.33735645 C50.08598791 16.34779437 34.90047857 16.3653711 19.71496582 16.38768005 Z M6.71496582 29.38768005 C6.71496582 40.93768005 6.71496582 52.48768005 6.71496582 64.38768005 C18.26496582 64.38768005 29.81496582 64.38768005 41.71496582 64.38768005 C37.21064695 59.06529595 37.21064695 59.06529595 32.47937012 54.02268982 C31.92246994 53.46263748 31.36556976 52.90258514 30.79179382 52.32556152 C29.92425224 51.46105629 29.92425224 51.46105629 29.03918457 50.5790863 C28.42855667 49.96750168 27.81792877 49.35591705 27.188797 48.72579956 C25.91188197 47.44820966 24.63372589 46.17185903 23.35437012 44.89671326 C21.38680016 42.9345575 19.4246985 40.96704485 17.4630127 38.99900818 C16.21789099 37.75454629 14.97245966 36.51039411 13.72668457 35.2665863 C13.13820236 34.67607986 12.54972015 34.08557343 11.94340515 33.47717285 C9.69441016 30.68346835 9.69441016 30.68346835 6.71496582 29.38768005 Z M-195.82409668 89.17674255 C-201.56811055 97.60801438 -201.57738965 107.05107908 -201.53900146 116.95042419 C-201.54212145 118.19316384 -201.54524143 119.43590349 -201.54845595 120.71630192 C-201.55502754 124.14474881 -201.55269689 127.57297488 -201.54648352 131.0014081 C-201.54194371 134.70698568 -201.54895035 138.41254448 -201.55444336 142.11811829 C-201.56332272 149.36903781 -201.56142185 156.61991585 -201.55561808 163.87083697 C-201.55109586 169.76538098 -201.55049111 175.65991338 -201.55266571 181.55445862 C-201.55297218 182.39435052 -201.55327864 183.23424242 -201.5535944 184.09958559 C-201.55423387 185.80596821 -201.55488229 187.51235082 -201.55553958 189.21873343 C-201.5612386 205.20832345 -201.55469169 221.1978905 -201.54393885 237.18747675 C-201.53500372 250.89842841 -201.53655589 264.6093462 -201.54577637 278.32029724 C-201.55648655 294.25383658 -201.56068932 310.18735581 -201.55455184 326.12089825 C-201.55391476 327.82089932 -201.55328602 329.52090041 -201.55266571 331.22090149 C-201.55235716 332.05726971 -201.55204861 332.89363793 -201.55173071 333.75535065 C-201.55000601 339.64078414 -201.55291401 345.52620484 -201.55762482 351.41163635 C-201.56324195 358.58690813 -201.56169969 365.76213617 -201.55106333 372.93740296 C-201.54581783 376.59623639 -201.5437307 380.25499696 -201.55036163 383.9138298 C-201.55744825 387.88423944 -201.54896943 391.85453055 -201.53900146 395.82493591 C-201.54346291 396.97542954 -201.54792435 398.12592318 -201.55252099 399.31128025 C-201.50579579 408.90916243 -200.76072008 417.86010609 -194.28503418 425.38768005 C-186.87932659 431.75852894 -177.81132201 432.69587917 -168.36682129 432.64164734 C-167.51610267 432.64476732 -166.66538404 432.6478873 -165.78888607 432.65110183 C-162.96331102 432.65902303 -160.13795425 432.65278128 -157.31237793 432.64646912 C-155.27641678 432.64918159 -153.24045661 432.65274396 -151.20449829 432.65708923 C-145.69218145 432.66618497 -140.17993972 432.66268058 -134.66762161 432.65633106 C-128.89026949 432.6512565 -123.11292367 432.65596656 -117.33557129 432.65910339 C-107.63479461 432.66273879 -97.93404842 432.65795512 -88.23327637 432.64842224 C-77.0287084 432.63753853 -65.82421323 432.64106441 -54.61964703 432.65207505 C-44.98797579 432.66116006 -35.35632643 432.66242726 -25.72465229 432.65719771 C-19.97717916 432.6540847 -14.22974021 432.6536503 -8.48226929 432.66027069 C-3.07809935 432.66606117 2.32597701 432.66201608 7.73013687 432.65048218 C9.70980804 432.6478447 11.68948713 432.64858505 13.66915512 432.65300751 C16.3784596 432.65850048 19.08746718 432.65158355 21.79675293 432.64164734 C22.57371552 432.64610878 23.35067812 432.65057023 24.15118504 432.65516686 C33.04328963 432.59223329 40.85287789 431.28474704 47.34387207 424.74705505 C53.38969889 418.04565665 54.84143486 411.4836221 54.83801365 402.52689552 C54.8400047 401.37239548 54.84199575 400.21789544 54.84404713 399.02841055 C54.83967787 397.14027957 54.83967787 397.14027957 54.83522034 395.21400452 C54.83565661 393.85589146 54.83653254 392.49777849 54.8378095 391.13966596 C54.84004349 387.41349505 54.83604816 383.68735294 54.83103144 379.96118569 C54.82671141 375.94080371 54.82817447 371.92042333 54.82893372 367.90003967 C54.82945796 360.93636821 54.82632149 353.97270612 54.82069588 347.00903702 C54.81256749 336.94075099 54.80996428 326.8724695 54.80870789 316.80418055 C54.80651948 300.46889266 54.79986509 284.13360976 54.79040527 267.79832458 C54.78122571 251.9304863 54.77414753 236.06264937 54.76989746 220.19480896 C54.76963474 219.21665075 54.76937201 218.23849254 54.76910133 217.23069318 C54.76779629 212.32354162 54.76653258 207.41639005 54.76528943 202.50923848 C54.75492338 161.80204886 54.73731078 121.09486474 54.71496582 80.38768005 C25.31274147 80.34202829 -4.08948036 80.30664698 -33.49173292 80.28554939 C-36.96506973 80.28304806 -40.43840646 80.28045941 -43.91174316 80.27781677 C-44.603205 80.27729215 -45.29466683 80.27676753 -46.00708205 80.27622701 C-57.1945702 80.26753082 -68.38203774 80.25176518 -79.56951367 80.23337446 C-91.053873 80.21465354 -102.53821784 80.20370834 -114.02259213 80.19950306 C-120.47108517 80.19689629 -126.9195315 80.19077152 -133.36800957 80.17621994 C-139.43933381 80.16263063 -145.51059216 80.15846018 -151.58193016 80.16146469 C-153.80832019 80.16091514 -156.03471246 80.15694578 -158.26108932 80.1492691 C-161.30584875 80.13928685 -164.35036093 80.14172323 -167.39512634 80.14717102 C-168.27161077 80.14134534 -169.14809521 80.13551965 -170.05113977 80.12951744 C-179.62108947 80.17564984 -189.26691465 81.5544345 -195.82409668 89.17674255 Z M70.71496582 112.38768005 C70.71496582 138.78768005 70.71496582 165.18768005 70.71496582 192.38768005 C82.40934082 192.48049255 82.40934082 192.48049255 94.33996582 192.57518005 C96.7912793 192.60249207 99.24259277 192.62980408 101.76818848 192.65794373 C103.72179675 192.66670961 105.67541052 192.67435331 107.62902832 192.6806488 C108.63473877 192.6959967 109.64044922 192.7113446 110.67663574 192.72715759 C116.02892396 192.72915025 120.24039329 192.68858685 124.71496582 189.38768005 C126.68268528 185.54632381 126.97181844 182.3212561 126.98962402 178.04026794 C126.99915604 176.77868362 127.00868805 175.5170993 127.01850891 174.21728516 C127.01824746 172.84830192 127.01731032 171.47931867 127.01574707 170.1103363 C127.01963748 168.69695918 127.02397286 167.28358321 127.0287323 165.87020874 C127.03618061 162.9122081 127.03591332 159.95432684 127.03063965 156.99632263 C127.02484602 153.21572437 127.04177966 149.43561619 127.06498432 145.65509892 C127.07975406 142.73733692 127.080589 139.81969209 127.07747459 136.90189934 C127.07798616 135.50851407 127.0831928 134.11512195 127.09328651 132.72177315 C127.10569548 130.76938274 127.09689582 128.81689286 127.08728027 126.86448669 C127.0879097 125.75593826 127.08853912 124.64738983 127.08918762 123.50524902 C126.64691741 119.82078203 125.75417919 117.4879334 123.71496582 114.38768005 C120.38501368 112.48102029 117.53505747 112.14060833 113.74108887 112.16062927 C112.76716187 112.16087097 111.79323486 112.16111267 110.78979492 112.16136169 C109.77896851 112.17159363 108.76814209 112.18182556 107.72668457 112.19236755 C106.31884705 112.19538879 106.31884705 112.19538879 104.88256836 112.19847107 C101.38915086 112.20890549 97.89580324 112.23682805 94.40246582 112.26268005 C86.58559082 112.30393005 78.76871582 112.34518005 70.71496582 112.38768005 Z M70.71496582 256.38768005 C70.71496582 282.78768005 70.71496582 309.18768005 70.71496582 336.38768005 C82.40934082 336.48049255 82.40934082 336.48049255 94.33996582 336.57518005 C96.7912793 336.60249207 99.24259277 336.62980408 101.76818848 336.65794373 C103.72179675 336.66670961 105.67541052 336.67435331 107.62902832 336.6806488 C108.63473877 336.6959967 109.64044922 336.7113446 110.67663574 336.72715759 C116.02892396 336.72915025 120.24039329 336.68858685 124.71496582 333.38768005 C126.68268528 329.54632381 126.97181844 326.3212561 126.98962402 322.04026794 C126.99915604 320.77868362 127.00868805 319.5170993 127.01850891 318.21728516 C127.01824746 316.84830192 127.01731032 315.47931867 127.01574707 314.1103363 C127.01963748 312.69695918 127.02397286 311.28358321 127.0287323 309.87020874 C127.03618061 306.9122081 127.03591332 303.95432684 127.03063965 300.99632263 C127.02484602 297.21572437 127.04177966 293.43561619 127.06498432 289.65509892 C127.07975406 286.73733692 127.080589 283.81969209 127.07747459 280.90189934 C127.07798616 279.50851407 127.0831928 278.11512195 127.09328651 276.72177315 C127.10569548 274.76938274 127.09689582 272.81689286 127.08728027 270.86448669 C127.0879097 269.75593826 127.08853912 268.64738983 127.08918762 267.50524902 C126.64691741 263.82078203 125.75417919 261.4879334 123.71496582 258.38768005 C120.38501368 256.48102029 117.53505747 256.14060833 113.74108887 256.16062927 C112.76716187 256.16087097 111.79323486 256.16111267 110.78979492 256.16136169 C109.77896851 256.17159363 108.76814209 256.18182556 107.72668457 256.19236755 C106.31884705 256.19538879 106.31884705 256.19538879 104.88256836 256.19847107 C101.38915086 256.20890549 97.89580324 256.23682805 94.40246582 256.26268005 C86.58559082 256.30393005 78.76871582 256.34518005 70.71496582 256.38768005 Z " fill="#000000" transform="translate(273.2850341796875,31.612319946289063)"/>
<path d="M0 0 C1.52231987 -0.01913956 1.52231987 -0.01913956 3.07539368 -0.03866577 C4.70519417 -0.04200424 4.70519417 -0.04200424 6.36791992 -0.04541016 C8.06013924 -0.05539536 8.06013924 -0.05539536 9.7865448 -0.06558228 C12.17115654 -0.07569717 14.55579652 -0.08039966 16.94042969 -0.08007812 C20.57494172 -0.08444449 24.20823252 -0.12075974 27.8425293 -0.15869141 C30.1634887 -0.16456124 32.48445385 -0.16852952 34.80541992 -0.17041016 C35.88588089 -0.18478119 36.96634186 -0.19915222 38.07954407 -0.21395874 C45.65051991 -0.16847937 50.68328643 1.1192399 56.78198242 5.83349609 C61.43851007 11.14622818 64.49872161 17.12008154 67.50244141 23.47485352 C69.57564798 27.77491578 69.57564798 27.77491578 73.16479492 30.77490234 C76.1720256 31.36648871 79.03460247 31.57012801 82.09838867 31.66552734 C90.3243859 32.23123854 95.06627592 34.15191103 100.66088867 40.22802734 C106.39750768 46.93853748 106.15852948 53.53285991 106.15649414 62.0456543 C106.16085469 64.08712021 106.19717733 66.12639815 106.23510742 68.16748047 C106.26113912 76.95317974 105.76078814 82.75455857 99.82104492 89.53271484 C99.17006836 90.07154297 98.5190918 90.61037109 97.84838867 91.16552734 C97.19999023 91.71982422 96.5515918 92.27412109 95.88354492 92.84521484 C90.87748146 96.29445782 86.42724189 96.55386531 80.47338867 96.41552734 C79.73282227 96.40650391 78.99225586 96.39748047 78.22924805 96.38818359 C76.414654 96.36476948 74.60022796 96.3289035 72.78588867 96.29052734 C72.50874023 97.04205078 72.2315918 97.79357422 71.94604492 98.56787109 C69.61067443 104.04852172 65.97956521 108.00594606 60.66088867 110.72802734 C53.64131963 113.45785975 46.01247181 113.47665106 38.97338867 110.79052734 C34.22177617 108.36711842 30.6996085 104.73048136 27.78588867 100.29052734 C27.45588867 98.97052734 27.12588867 97.65052734 26.78588867 96.29052734 C15.56588867 96.29052734 4.34588867 96.29052734 -7.21411133 96.29052734 C-7.87411133 97.94052734 -8.53411133 99.59052734 -9.21411133 101.29052734 C-12.897627 107.09961272 -17.55301215 110.56923413 -24.21411133 112.29052734 C-31.82557304 113.27494306 -38.78208328 112.71792715 -45.21411133 108.29052734 C-49.03924056 104.77515434 -52.2787173 101.52873387 -53.21411133 96.29052734 C-54.36911133 96.37302734 -55.52411133 96.45552734 -56.71411133 96.54052734 C-62.63862089 96.49873186 -66.9059272 94.46266919 -71.20239258 90.41943359 C-78.14141731 82.81954936 -78.58713584 76.65303756 -78.5847168 66.53540039 C-78.58907735 64.49393448 -78.62539999 62.45465654 -78.66333008 60.41357422 C-78.68936178 51.62787495 -78.1890108 45.82649612 -72.24926758 39.04833984 C-71.59829102 38.50951172 -70.94731445 37.97068359 -70.27661133 37.41552734 C-69.30401367 36.58408203 -69.30401367 36.58408203 -68.31176758 35.73583984 C-64.31327271 32.98082476 -60.72646752 32.04802134 -55.90551758 31.98193359 C-54.91100586 31.95679688 -53.91649414 31.93166016 -52.8918457 31.90576172 C-50.81899047 31.87067263 -48.74606689 31.83940781 -46.6730957 31.81201172 C-38.96320028 31.68294204 -38.96320028 31.68294204 -32.21411133 28.29052734 C-29.70551862 25.35152596 -27.52002159 22.22726762 -25.33911133 19.04052734 C-18.93148614 9.7242723 -12.31167174 0.10563287 0 0 Z M-6.26879883 21.47949219 C-6.86950195 22.31174316 -7.47020508 23.14399414 -8.08911133 24.00146484 C-8.76458008 24.91669922 -9.44004883 25.83193359 -10.13598633 26.77490234 C-10.82176758 27.72880859 -11.50754883 28.68271484 -12.21411133 29.66552734 C-22.97163842 44.50767938 -22.97163842 44.50767938 -31.21411133 47.29052734 C-33.79785156 47.56176758 -33.79785156 47.56176758 -36.52270508 47.59912109 C-38.01447266 47.63682617 -38.01447266 47.63682617 -39.53637695 47.67529297 C-41.60923219 47.71038205 -43.68215577 47.74164687 -45.75512695 47.76904297 C-53.43503229 47.92398879 -53.43503229 47.92398879 -60.21411133 51.29052734 C-62.6945355 55.30066556 -62.54793574 59.63474944 -62.52661133 64.22802734 C-62.54272461 64.91832031 -62.55883789 65.60861328 -62.57543945 66.31982422 C-62.57991775 71.04442241 -61.79344662 74.32554914 -59.21411133 78.29052734 C-56.15049356 79.73021462 -56.15049356 79.73021462 -53.21411133 80.29052734 C-52.83899414 79.68724609 -52.46387695 79.08396484 -52.07739258 78.46240234 C-48.57337963 72.99014031 -45.61509983 68.94954612 -39.65161133 66.04052734 C-31.91484994 64.35250668 -24.34245399 64.30141339 -17.18676758 67.95068359 C-12.5040704 71.13120861 -9.66878076 75.2814736 -7.21411133 80.29052734 C-2.48216594 80.51387639 2.24668611 80.67668588 6.98266602 80.78491211 C8.59128264 80.83003618 10.19953281 80.89135863 11.80688477 80.96948242 C21.03383826 81.76536179 21.03383826 81.76536179 29.12280273 78.33276367 C30.62964783 76.03854352 31.69942438 73.80280073 32.78588867 71.29052734 C37.82538665 66.37701681 42.69965742 65.1781694 49.59838867 64.91552734 C56.26663811 65.05599852 61.62763747 66.36320204 66.60229492 70.97412109 C69.20445677 73.88979641 71.11776527 76.75255398 72.78588867 80.29052734 C78.48752125 80.6326253 82.93179311 80.72391201 87.78588867 77.29052734 C90.04044676 73.10569692 90.11997399 69.00250558 90.09838867 64.35302734 C90.11450195 63.66273438 90.13061523 62.97244141 90.1472168 62.26123047 C90.15169658 57.53506282 89.46392354 54.20547591 86.78588867 50.29052734 C83.1135264 48.12589813 79.67411708 48.04632847 75.47338867 47.91552734 C68.99115908 47.47655017 64.04575469 46.46299463 59.29248047 41.8371582 C55.41166103 37.38218651 52.66249498 32.75411981 50.03588867 27.47802734 C49.2735213 25.96986579 48.50803462 24.46327583 47.73901367 22.95849609 C47.410625 22.30131592 47.08223633 21.64413574 46.74389648 20.96704102 C45.46503136 18.72902705 44.37929424 17.48415554 41.90133667 16.67559814 C38.39095212 16.03660981 34.85083069 16.10649629 31.29370117 16.08740234 C30.4701413 16.08170227 29.64658142 16.0760022 28.79806519 16.07012939 C27.0581795 16.06069845 25.3182761 16.054153 23.57836914 16.05029297 C20.92717115 16.04058695 18.27674867 16.00954602 15.62573242 15.97802734 C13.93172659 15.9714966 12.23771523 15.96624641 10.54370117 15.96240234 C9.75601349 15.95005554 8.96832581 15.93770874 8.1567688 15.92498779 C2.20768807 15.94887485 -2.0348282 16.96882434 -6.26879883 21.47949219 Z M-35.58911133 82.91552734 C-37.70117639 86.00239166 -37.82606278 87.61881865 -37.21411133 91.29052734 C-35.71411133 93.79052734 -35.71411133 93.79052734 -33.21411133 95.29052734 C-29.54240263 95.90247879 -27.92597564 95.7775924 -24.83911133 93.66552734 C-22.72704627 90.57866303 -22.60215988 88.96223604 -23.21411133 85.29052734 C-24.71411133 82.79052734 -24.71411133 82.79052734 -27.21411133 81.29052734 C-30.88582003 80.67857589 -32.50224701 80.80346229 -35.58911133 82.91552734 Z M44.41088867 82.91552734 C42.29882361 86.00239166 42.17393722 87.61881865 42.78588867 91.29052734 C44.28588867 93.79052734 44.28588867 93.79052734 46.78588867 95.29052734 C50.45759737 95.90247879 52.07402436 95.7775924 55.16088867 93.66552734 C57.27295373 90.57866303 57.39784012 88.96223604 56.78588867 85.29052734 C55.28588867 82.79052734 55.28588867 82.79052734 52.78588867 81.29052734 C49.11417997 80.67857589 47.49775299 80.80346229 44.41088867 82.91552734 Z " fill="#000000" transform="translate(190.214111328125,135.70947265625)"/>
<path d="M0 0 C1.21508743 -0.0127597 2.43017487 -0.02551941 3.68208313 -0.03866577 C5.63999031 -0.04200424 5.63999031 -0.04200424 7.63745117 -0.04541016 C9.00119667 -0.0518443 10.36494081 -0.05857312 11.72868347 -0.06558228 C14.58412879 -0.07753628 17.43945331 -0.08126513 20.29492188 -0.08007812 C23.93645103 -0.07987523 27.57719721 -0.10715436 31.21854115 -0.14162254 C34.03516629 -0.1639699 36.85160548 -0.16791327 39.66831017 -0.16685867 C41.65790472 -0.17033666 43.64744123 -0.19195224 45.63691711 -0.21395874 C53.98291764 -0.17202059 59.65674408 0.60024607 66.11010742 6.25537109 C66.64893555 6.90634766 67.18776367 7.55732422 67.74291992 8.22802734 C68.2972168 8.87642578 68.85151367 9.52482422 69.42260742 10.19287109 C73.69894755 16.39934311 73.24026855 22.75490041 73.23852539 30.0456543 C73.24288594 32.08712021 73.27920858 34.12639815 73.31713867 36.16748047 C73.34317037 44.95317974 72.84281939 50.75455857 66.90307617 57.53271484 C66.25209961 58.07154297 65.60112305 58.61037109 64.93041992 59.16552734 C64.28202148 59.71982422 63.63362305 60.27412109 62.96557617 60.84521484 C58.66242469 63.81014231 54.91574975 64.54401671 49.73583984 64.58105469 C48.52075241 64.59381439 47.30566498 64.6065741 46.05375671 64.61972046 C44.74848526 64.62194611 43.44321381 64.62417175 42.09838867 64.62646484 C40.73464317 64.63289899 39.37089904 64.63962781 38.00715637 64.64663696 C35.15171105 64.65859097 32.29638653 64.66231982 29.44091797 64.66113281 C25.79938882 64.66092991 22.15864264 64.68820905 18.5172987 64.72267723 C15.70067355 64.74502459 12.88423437 64.74896796 10.06752968 64.74791336 C8.07793512 64.75139134 6.08839862 64.77300692 4.09892273 64.79501343 C-4.24707779 64.75307528 -9.92090424 63.98080861 -16.37426758 58.32568359 C-16.9130957 57.67470703 -17.45192383 57.02373047 -18.00708008 56.35302734 C-18.56137695 55.70462891 -19.11567383 55.05623047 -19.68676758 54.38818359 C-23.9631077 48.18171158 -23.5044287 41.82615428 -23.50268555 34.53540039 C-23.5070461 32.49393448 -23.54336874 30.45465654 -23.58129883 28.41357422 C-23.60733053 19.62787495 -23.10697955 13.82649612 -17.16723633 7.04833984 C-16.51625977 6.50951172 -15.8652832 5.97068359 -15.19458008 5.41552734 C-14.54618164 4.86123047 -13.8977832 4.30693359 -13.22973633 3.73583984 C-8.92658485 0.77091238 -5.1799099 0.03703797 0 0 Z M-5.13208008 19.29052734 C-7.61250425 23.30066556 -7.46590449 27.63474944 -7.44458008 32.22802734 C-7.46069336 32.91832031 -7.47680664 33.60861328 -7.4934082 34.31982422 C-7.49788798 39.04599187 -6.81011494 42.37557877 -4.13208008 46.29052734 C-0.76147231 47.9657217 2.00479023 48.54425101 5.74658203 48.56518555 C6.68783432 48.57471756 7.62908661 48.58424957 8.59886169 48.59407043 C9.60417435 48.59315903 10.609487 48.59224762 11.64526367 48.59130859 C12.68936905 48.59559372 13.73347443 48.59987885 14.80921936 48.60429382 C17.01391882 48.61002818 19.2186372 48.61054399 21.42333984 48.60620117 C24.78996154 48.60304185 28.1557037 48.62651004 31.5222168 48.65185547 C33.66739798 48.65412866 35.81258153 48.65483187 37.95776367 48.65380859 C38.96105209 48.66301834 39.96434052 48.67222809 40.99803162 48.68171692 C46.35595221 48.64637892 50.27209529 48.37806976 54.86791992 45.29052734 C57.34834409 41.28038913 57.20174433 36.94630525 57.18041992 32.35302734 C57.1965332 31.66273438 57.21264648 30.97244141 57.22924805 30.26123047 C57.23372783 25.53506282 56.54595479 22.20547591 53.86791992 18.29052734 C50.49731215 16.61533299 47.73104962 16.03680368 43.98925781 16.01586914 C43.04800552 16.00633713 42.10675323 15.99680511 41.13697815 15.98698425 C40.1316655 15.98789566 39.12635284 15.98880707 38.09057617 15.98974609 C36.52441811 15.98331841 36.52441811 15.98331841 34.92662048 15.97676086 C32.72192102 15.97102651 30.51720264 15.9705107 28.3125 15.97485352 C24.9458783 15.97801284 21.58013614 15.95454465 18.21362305 15.92919922 C16.06844186 15.92692603 13.92325832 15.92622282 11.77807617 15.92724609 C10.77478775 15.91803635 9.77149933 15.9088266 8.73780823 15.89933777 C3.37988763 15.93467577 -0.53625545 16.20298493 -5.13208008 19.29052734 Z " fill="#000000" transform="translate(231.132080078125,375.70947265625)"/>
<path d="M0 0 C1.21508743 -0.0127597 2.43017487 -0.02551941 3.68208313 -0.03866577 C5.63999031 -0.04200424 5.63999031 -0.04200424 7.63745117 -0.04541016 C9.00119667 -0.0518443 10.36494081 -0.05857312 11.72868347 -0.06558228 C14.58412879 -0.07753628 17.43945331 -0.08126513 20.29492188 -0.08007812 C23.93645103 -0.07987523 27.57719721 -0.10715436 31.21854115 -0.14162254 C34.03516629 -0.1639699 36.85160548 -0.16791327 39.66831017 -0.16685867 C41.65790472 -0.17033666 43.64744123 -0.19195224 45.63691711 -0.21395874 C53.98291764 -0.17202059 59.65674408 0.60024607 66.11010742 6.25537109 C66.64893555 6.90634766 67.18776367 7.55732422 67.74291992 8.22802734 C68.2972168 8.87642578 68.85151367 9.52482422 69.42260742 10.19287109 C73.69894755 16.39934311 73.24026855 22.75490041 73.23852539 30.0456543 C73.24288594 32.08712021 73.27920858 34.12639815 73.31713867 36.16748047 C73.34317037 44.95317974 72.84281939 50.75455857 66.90307617 57.53271484 C66.25209961 58.07154297 65.60112305 58.61037109 64.93041992 59.16552734 C64.28202148 59.71982422 63.63362305 60.27412109 62.96557617 60.84521484 C58.66242469 63.81014231 54.91574975 64.54401671 49.73583984 64.58105469 C48.52075241 64.59381439 47.30566498 64.6065741 46.05375671 64.61972046 C44.74848526 64.62194611 43.44321381 64.62417175 42.09838867 64.62646484 C40.73464317 64.63289899 39.37089904 64.63962781 38.00715637 64.64663696 C35.15171105 64.65859097 32.29638653 64.66231982 29.44091797 64.66113281 C25.79938882 64.66092991 22.15864264 64.68820905 18.5172987 64.72267723 C15.70067355 64.74502459 12.88423437 64.74896796 10.06752968 64.74791336 C8.07793512 64.75139134 6.08839862 64.77300692 4.09892273 64.79501343 C-4.24707779 64.75307528 -9.92090424 63.98080861 -16.37426758 58.32568359 C-16.9130957 57.67470703 -17.45192383 57.02373047 -18.00708008 56.35302734 C-18.56137695 55.70462891 -19.11567383 55.05623047 -19.68676758 54.38818359 C-23.9631077 48.18171158 -23.5044287 41.82615428 -23.50268555 34.53540039 C-23.5070461 32.49393448 -23.54336874 30.45465654 -23.58129883 28.41357422 C-23.60733053 19.62787495 -23.10697955 13.82649612 -17.16723633 7.04833984 C-16.51625977 6.50951172 -15.8652832 5.97068359 -15.19458008 5.41552734 C-14.54618164 4.86123047 -13.8977832 4.30693359 -13.22973633 3.73583984 C-8.92658485 0.77091238 -5.1799099 0.03703797 0 0 Z M-5.13208008 19.29052734 C-7.61250425 23.30066556 -7.46590449 27.63474944 -7.44458008 32.22802734 C-7.46069336 32.91832031 -7.47680664 33.60861328 -7.4934082 34.31982422 C-7.49788798 39.04599187 -6.81011494 42.37557877 -4.13208008 46.29052734 C-0.76147231 47.9657217 2.00479023 48.54425101 5.74658203 48.56518555 C6.68783432 48.57471756 7.62908661 48.58424957 8.59886169 48.59407043 C9.60417435 48.59315903 10.609487 48.59224762 11.64526367 48.59130859 C12.68936905 48.59559372 13.73347443 48.59987885 14.80921936 48.60429382 C17.01391882 48.61002818 19.2186372 48.61054399 21.42333984 48.60620117 C24.78996154 48.60304185 28.1557037 48.62651004 31.5222168 48.65185547 C33.66739798 48.65412866 35.81258153 48.65483187 37.95776367 48.65380859 C38.96105209 48.66301834 39.96434052 48.67222809 40.99803162 48.68171692 C46.35595221 48.64637892 50.27209529 48.37806976 54.86791992 45.29052734 C57.34834409 41.28038913 57.20174433 36.94630525 57.18041992 32.35302734 C57.1965332 31.66273438 57.21264648 30.97244141 57.22924805 30.26123047 C57.23372783 25.53506282 56.54595479 22.20547591 53.86791992 18.29052734 C50.49731215 16.61533299 47.73104962 16.03680368 43.98925781 16.01586914 C43.04800552 16.00633713 42.10675323 15.99680511 41.13697815 15.98698425 C40.1316655 15.98789566 39.12635284 15.98880707 38.09057617 15.98974609 C36.52441811 15.98331841 36.52441811 15.98331841 34.92662048 15.97676086 C32.72192102 15.97102651 30.51720264 15.9705107 28.3125 15.97485352 C24.9458783 15.97801284 21.58013614 15.95454465 18.21362305 15.92919922 C16.06844186 15.92692603 13.92325832 15.92622282 11.77807617 15.92724609 C10.77478775 15.91803635 9.77149933 15.9088266 8.73780823 15.89933777 C3.37988763 15.93467577 -0.53625545 16.20298493 -5.13208008 19.29052734 Z " fill="#000000" transform="translate(119.132080078125,375.70947265625)"/>
<path d="M0 0 C1.12795361 -0.00935994 1.12795361 -0.00935994 2.27869415 -0.01890898 C4.80004674 -0.03487215 7.32043701 -0.02222232 9.84179688 -0.00964355 C11.64868738 -0.01506322 13.45557347 -0.022185 15.26245117 -0.03088379 C20.17152718 -0.04913865 25.0802674 -0.04204069 29.98934937 -0.02936745 C35.12311722 -0.01925099 40.25685604 -0.02862936 45.390625 -0.03491211 C54.01242238 -0.04219246 62.63408278 -0.03259062 71.25585938 -0.0135498 C81.22843656 0.00821965 91.20068666 0.00116856 101.17325592 -0.02085543 C109.73046929 -0.03899836 118.2875841 -0.04157316 126.84481049 -0.03110075 C131.95787417 -0.02485974 137.07078404 -0.02404689 142.18383789 -0.0372467 C146.99052263 -0.04878848 151.79678503 -0.04081012 156.60342407 -0.01766968 C158.36910297 -0.01237363 160.13481731 -0.01391164 161.90048218 -0.02272034 C164.30783501 -0.03362444 166.71382798 -0.01997589 169.12109375 0 C169.82264839 -0.00892289 170.52420303 -0.01784577 171.24701691 -0.02703905 C174.62446015 0.02745936 176.2994499 0.30320835 178.99230957 2.41468048 C180.69443484 4.68664574 181.10432144 5.7063621 181.06054688 8.50793457 C181.07601562 9.49793457 181.07601562 9.49793457 181.09179688 10.50793457 C180.29774127 13.49732038 178.98803599 14.60453958 176.56054688 16.50793457 C173.94027455 16.9011101 171.73919684 17.0491681 169.12109375 17.01586914 C167.99314014 17.02522908 167.99314014 17.02522908 166.8423996 17.03477812 C164.32104701 17.05074129 161.80065674 17.03809146 159.27929688 17.0255127 C157.47240637 17.03093236 155.66552028 17.03805414 153.85864258 17.04675293 C148.94956657 17.06500779 144.04082635 17.05790983 139.13174438 17.04523659 C133.99797653 17.03512013 128.86423771 17.0444985 123.73046875 17.05078125 C115.10867137 17.0580616 106.48701097 17.04845976 97.86523438 17.02941895 C87.89265719 17.00764949 77.92040709 17.01470058 67.94783783 17.03672457 C59.39062446 17.0548675 50.83350965 17.0574423 42.27628326 17.04696989 C37.16321958 17.04072888 32.05030971 17.03991603 26.93725586 17.05311584 C22.13057112 17.06465762 17.32430872 17.05667926 12.51766968 17.03353882 C10.75199078 17.02824277 8.98627644 17.02978079 7.22061157 17.03858948 C4.81325874 17.04949358 2.40726577 17.03584503 0 17.01586914 C-1.05233196 17.02925347 -1.05233196 17.02925347 -2.12592316 17.04290819 C-5.5033664 16.98840978 -7.17835615 16.71266079 -9.87121582 14.60118866 C-11.57334109 12.3292234 -11.98322769 11.30950704 -11.93945312 8.50793457 C-11.95492187 7.51793457 -11.95492187 7.51793457 -11.97070312 6.50793457 C-10.33950272 0.36694482 -5.52211149 -0.07023427 0 0 Z " fill="#000000" transform="translate(107.439453125,303.4920654296875)"/>
<path d="M0 0 C1.14404297 -0.0112793 2.28808594 -0.02255859 3.46679688 -0.03417969 C5.34334961 -0.0220343 5.34334961 -0.0220343 7.2578125 -0.00964355 C8.59180465 -0.01506511 9.9257908 -0.02218797 11.25976562 -0.03088379 C14.87966598 -0.04911656 18.49911024 -0.04205017 22.11901855 -0.02936745 C25.9074832 -0.01923938 29.69590882 -0.02863258 33.484375 -0.03491211 C39.84642548 -0.04218911 46.20829022 -0.03259956 52.5703125 -0.0135498 C59.92541387 0.00821921 67.28007173 0.00116786 74.63516235 -0.02085543 C80.95036617 -0.03900805 87.26543648 -0.04156848 93.58065796 -0.03110075 C97.35234853 -0.02486499 101.12383064 -0.02403225 104.89550781 -0.0372467 C108.44153603 -0.04880278 111.98699253 -0.04078487 115.53295898 -0.01766968 C117.45490737 -0.00985857 119.37690412 -0.02174065 121.29882812 -0.03417969 C123.01489258 -0.01726074 123.01489258 -0.01726074 124.765625 0 C125.75965332 0.0015081 126.75368164 0.0030162 127.77783203 0.00457001 C131.10045353 0.6466055 132.29109008 1.90497918 134.3828125 4.50793457 C134.9140625 6.50793457 134.9140625 6.50793457 134.8828125 8.50793457 C134.89828125 9.49793457 134.89828125 9.49793457 134.9140625 10.50793457 C134.13782429 13.43024313 132.6995018 14.60216083 130.3828125 16.50793457 C127.77783203 17.01129913 127.77783203 17.01129913 124.765625 17.01586914 C123.62158203 17.02714844 122.47753906 17.03842773 121.29882812 17.05004883 C120.04779297 17.0419519 118.79675781 17.03385498 117.5078125 17.0255127 C116.17382035 17.03093425 114.8398342 17.03805711 113.50585938 17.04675293 C109.88595902 17.0649857 106.26651476 17.05791931 102.64660645 17.04523659 C98.8581418 17.03510852 95.06971618 17.04450172 91.28125 17.05078125 C84.91919952 17.05805825 78.55733478 17.0484687 72.1953125 17.02941895 C64.84021113 17.00764993 57.48555327 17.01470128 50.13046265 17.03672457 C43.81525883 17.05487719 37.50018852 17.05743762 31.18496704 17.04696989 C27.41327647 17.04073413 23.64179436 17.03990139 19.87011719 17.05311584 C16.32408897 17.06467192 12.77863247 17.05665401 9.23266602 17.03353882 C7.31071763 17.02572771 5.38872088 17.03760979 3.46679688 17.05004883 C1.75073242 17.03312988 1.75073242 17.03312988 0 17.01586914 C-0.99402832 17.01436104 -1.98805664 17.01285294 -3.01220703 17.01129913 C-6.33482853 16.36926364 -7.52546508 15.11088996 -9.6171875 12.50793457 C-10.1484375 10.50793457 -10.1484375 10.50793457 -10.1171875 8.50793457 C-10.13265625 7.51793457 -10.13265625 7.51793457 -10.1484375 6.50793457 C-8.74861472 1.23801353 -4.99267277 0.0075747 0 0 Z " fill="#000000" transform="translate(105.6171875,271.4920654296875)"/>
<path d="M0 0 C1.00853027 -0.00700928 2.01706055 -0.01401855 3.05615234 -0.02124023 C6.39188114 -0.03885406 9.72676248 -0.02718497 13.0625 -0.01367188 C15.37890791 -0.0163658 17.69531472 -0.02024739 20.01171875 -0.02526855 C24.86729698 -0.03116822 29.72258096 -0.02258526 34.578125 -0.00390625 C40.80614646 0.01888316 47.03347845 0.00576265 53.26147461 -0.01819611 C58.04497485 -0.0326412 62.82831127 -0.02805393 67.61181641 -0.01768494 C69.90836671 -0.0150141 72.20493183 -0.01829988 74.50146484 -0.02760315 C77.7097114 -0.03774714 80.91683706 -0.02229671 84.125 0 C85.55271729 -0.01214539 85.55271729 -0.01214539 87.00927734 -0.02453613 C93.43945009 0.05837271 93.43945009 0.05837271 96.65039062 2.42492676 C98.17562415 4.68522053 98.60471773 5.81564333 98.5625 8.51757812 C98.57796875 9.50757813 98.57796875 9.50757813 98.59375 10.51757812 C97.77143622 13.61334764 96.65975504 14.60332765 94.0625 16.51757812 C90.75626211 17.12830568 87.47912473 17.06368931 84.125 17.03515625 C83.11646973 17.04216553 82.10793945 17.0491748 81.06884766 17.05639648 C77.73311886 17.07401031 74.39823752 17.06234122 71.0625 17.04882812 C68.74609209 17.05152205 66.42968528 17.05540364 64.11328125 17.0604248 C59.25770302 17.06632447 54.40241904 17.05774151 49.546875 17.0390625 C43.31885354 17.01627309 37.09152155 17.0293936 30.86352539 17.05335236 C26.08002515 17.06779745 21.29668873 17.06321018 16.51318359 17.05284119 C14.21663329 17.05017035 11.92006817 17.05345613 9.62353516 17.0627594 C6.4152886 17.07290339 3.20816294 17.05745296 0 17.03515625 C-0.95181152 17.04325317 -1.90362305 17.0513501 -2.88427734 17.05969238 C-9.31445009 16.97678354 -9.31445009 16.97678354 -12.52539062 14.61022949 C-14.05062415 12.34993572 -14.47971773 11.21951292 -14.4375 8.51757812 C-14.45296875 7.52757812 -14.45296875 7.52757812 -14.46875 6.51757812 C-12.53367962 -0.76739273 -6.18858895 -0.05264544 0 0 Z " fill="#000000" transform="translate(109.9375,335.482421875)"/>
</svg>
